<svg xmlns="http://www.w3.org/2000/svg" xmlns:xlink="http://www.w3.org/1999/xlink" width="1060.482" height="1026.41" viewBox="0 0 1060.482 1026.41">
  <defs>
    <linearGradient id="linear-gradient" x1="0.143" y1="0.241" x2="0.878" y2="0.768" gradientUnits="objectBoundingBox">
      <stop offset="0" stop-color="#ef0e74"/>
      <stop offset="1" stop-color="#ffa62e"/>
    </linearGradient>
  </defs>
  <g id="Objects" transform="translate(-745)">
    <path id="Shape" d="M1901.062,211.142a150.678,150.678,0,0,1,14.627,26.722c16.375,38.92,16.832,82.987,5.457,123.315-11.159,39.553-37.425,70.3-49.05,109.582-19.759,66.756-21.982,137.21-26.7,206.67s-12.474,140.288-42.066,203.3c-50.62,107.79-161.274,163.218-272.687,110.59-66.943-31.621-98.6-96.257-151.67-143.851-59.952-53.766-141.356-80.1-198.067-137.273-61.1-61.61-85.624-157.06-61.783-240.493s95.1-151.511,179.531-171.528c63.72-15.107,130.377-4.27,195.828-6.408,36.2-1.181,73.469-7.373,106.451-22.9,33.371-15.715,51.034-47.994,78.947-71.227,36.435-30.335,76.551-63.331,125.641-52.193C1843.924,154.163,1878.747,178.57,1901.062,211.142Z" transform="translate(1139.213 2133.009) rotate(-106)" opacity="0.9" fill="url(#linear-gradient)"/>
    <g id="Triangle" transform="matrix(-0.208, 0.978, -0.978, -0.208, 1515.923, -6.151)" opacity="0.6">
      <path id="Path_221" data-name="Path 221" d="M824.021-72.605a1.244,1.244,0,0,0,1.036.551,1.233,1.233,0,0,0,.7-.214,1.244,1.244,0,0,0,.551-1.036,1.3,1.3,0,0,0-.024-.246h-2.453a1.3,1.3,0,0,0-.024.246A1.236,1.236,0,0,0,824.021-72.605Z" fill="#fff"/>
      <path id="Path_222" data-name="Path 222" d="M837.064-47.757a1.238,1.238,0,0,0,.7-.214,1.248,1.248,0,0,0,.551-1.036,1.25,1.25,0,0,0-.551-1.038,1.238,1.238,0,0,0-.7-.214,1.24,1.24,0,0,0-.883.367,1.247,1.247,0,0,0-.367.885,1.244,1.244,0,0,0,.367.883A1.246,1.246,0,0,0,837.064-47.757Z" transform="translate(4.672 9.062)" fill="#fff"/>
      <path id="Path_223" data-name="Path 223" d="M831.062-59.764a1.251,1.251,0,0,0,1.25-1.252,1.251,1.251,0,0,0-1.25-1.252,1.252,1.252,0,0,0-1.252,1.252A1.251,1.251,0,0,0,831.062-59.764Z" transform="translate(2.336 4.39)" fill="#fff"/>
      <path id="Path_224" data-name="Path 224" d="M834.062-56.764a1.251,1.251,0,0,0,1.252-1.25,1.251,1.251,0,0,0-1.252-1.25,1.25,1.25,0,0,0-1.25,1.25A1.25,1.25,0,0,0,834.062-56.764Z" transform="translate(3.504 5.558)" fill="#fff"/>
      <path id="Path_225" data-name="Path 225" d="M833.86-53.26a1.246,1.246,0,0,0-.528.119l1.245,2.154a1.251,1.251,0,0,0,.535-1.025A1.25,1.25,0,0,0,833.86-53.26Z" transform="translate(3.706 7.895)" fill="#fff"/>
      <path id="Path_226" data-name="Path 226" d="M837.064-59.764a1.248,1.248,0,0,0,.7-.214,1.252,1.252,0,0,0,.551-1.038,1.252,1.252,0,0,0-.551-1.038,1.248,1.248,0,0,0-.7-.214,1.246,1.246,0,0,0-.883.367,1.247,1.247,0,0,0-.367.885,1.247,1.247,0,0,0,.367.885A1.246,1.246,0,0,0,837.064-59.764Z" transform="translate(4.672 4.39)" fill="#fff"/>
      <path id="Path_227" data-name="Path 227" d="M837.064-53.761a1.247,1.247,0,0,0,.7-.213,1.252,1.252,0,0,0,.551-1.038,1.252,1.252,0,0,0-.551-1.038,1.248,1.248,0,0,0-.7-.214,1.246,1.246,0,0,0-.883.367,1.247,1.247,0,0,0-.367.885,1.247,1.247,0,0,0,.367.885A1.245,1.245,0,0,0,837.064-53.761Z" transform="translate(4.672 6.726)" fill="#fff"/>
      <path id="Path_228" data-name="Path 228" d="M831.062-72.054a1.25,1.25,0,0,0,1.25-1.25,1.2,1.2,0,0,0-.025-.246h-2.452a1.187,1.187,0,0,0-.025.246A1.251,1.251,0,0,0,831.062-72.054Z" transform="translate(2.336)" fill="#fff"/>
      <path id="Path_229" data-name="Path 229" d="M825.439-68.056a1.233,1.233,0,0,0-.7-.214c-.04,0-.079.008-.12.011l.12.206,1.015,1.76a1.239,1.239,0,0,0,.235-.726A1.244,1.244,0,0,0,825.439-68.056Z" transform="translate(0.317 2.054)" fill="#fff"/>
      <path id="Path_230" data-name="Path 230" d="M831.062-65.768a1.251,1.251,0,0,0,1.25-1.252,1.25,1.25,0,0,0-1.25-1.25,1.251,1.251,0,0,0-1.252,1.25A1.251,1.251,0,0,0,831.062-65.768Z" transform="translate(2.336 2.054)" fill="#fff"/>
      <path id="Path_231" data-name="Path 231" d="M834.062-68.77a1.251,1.251,0,0,0,1.252-1.25,1.251,1.251,0,0,0-1.252-1.252,1.251,1.251,0,0,0-1.25,1.252A1.25,1.25,0,0,0,834.062-68.77Z" transform="translate(3.504 0.886)" fill="#fff"/>
      <path id="Path_232" data-name="Path 232" d="M828.06-68.77a1.25,1.25,0,0,0,1.25-1.25,1.251,1.251,0,0,0-1.25-1.252,1.252,1.252,0,0,0-1.252,1.252A1.251,1.251,0,0,0,828.06-68.77Z" transform="translate(1.168 0.886)" fill="#fff"/>
      <path id="Path_233" data-name="Path 233" d="M834.062-62.768a1.251,1.251,0,0,0,1.252-1.25,1.251,1.251,0,0,0-1.252-1.25,1.25,1.25,0,0,0-1.25,1.25A1.25,1.25,0,0,0,834.062-62.768Z" transform="translate(3.504 3.222)" fill="#fff"/>
      <path id="Path_234" data-name="Path 234" d="M828.056-65.268a1.248,1.248,0,0,0-1.239,1.125l.732,1.267a1.239,1.239,0,0,0,.507.108,1.25,1.25,0,0,0,1.25-1.25A1.25,1.25,0,0,0,828.056-65.268Z" transform="translate(1.171 3.222)" fill="#fff"/>
      <path id="Path_235" data-name="Path 235" d="M837.064-72.054a1.238,1.238,0,0,0,.7-.214,1.248,1.248,0,0,0,.551-1.036,1.3,1.3,0,0,0-.025-.246h-2.452a1.2,1.2,0,0,0-.025.246,1.249,1.249,0,0,0,.367.885A1.251,1.251,0,0,0,837.064-72.054Z" transform="translate(4.672)" fill="#fff"/>
      <path id="Path_236" data-name="Path 236" d="M837.064-65.768a1.248,1.248,0,0,0,.7-.214,1.252,1.252,0,0,0,.551-1.038,1.248,1.248,0,0,0-.551-1.036,1.238,1.238,0,0,0-.7-.214,1.246,1.246,0,0,0-.883.367,1.244,1.244,0,0,0-.367.883,1.247,1.247,0,0,0,.367.885A1.246,1.246,0,0,0,837.064-65.768Z" transform="translate(4.672 2.054)" fill="#fff"/>
      <path id="Path_237" data-name="Path 237" d="M846.071-32.749a1.25,1.25,0,0,0,1.25-1.25,1.25,1.25,0,0,0-1.25-1.25A1.252,1.252,0,0,0,844.819-34,1.252,1.252,0,0,0,846.071-32.749Z" transform="translate(8.175 14.902)" fill="#fff"/>
      <path id="Path_238" data-name="Path 238" d="M849.071-35.749a1.248,1.248,0,0,0,.7-.214A1.249,1.249,0,0,0,850.323-37a1.249,1.249,0,0,0-.552-1.038,1.248,1.248,0,0,0-.7-.214,1.246,1.246,0,0,0-.883.367,1.247,1.247,0,0,0-.367.885,1.247,1.247,0,0,0,.367.885A1.246,1.246,0,0,0,849.071-35.749Z" transform="translate(9.344 13.734)" fill="#fff"/>
      <path id="Path_239" data-name="Path 239" d="M849.071-29.746a1.247,1.247,0,0,0,.7-.213A1.249,1.249,0,0,0,850.323-31a1.249,1.249,0,0,0-.552-1.038,1.248,1.248,0,0,0-.7-.214,1.246,1.246,0,0,0-.883.367,1.247,1.247,0,0,0-.367.885,1.247,1.247,0,0,0,.367.885A1.245,1.245,0,0,0,849.071-29.746Z" transform="translate(9.344 16.07)" fill="#fff"/>
      <path id="Path_240" data-name="Path 240" d="M843.068-47.757a1.25,1.25,0,0,0,1.25-1.25,1.25,1.25,0,0,0-1.25-1.252,1.252,1.252,0,0,0-1.251,1.252A1.251,1.251,0,0,0,843.068-47.757Z" transform="translate(7.007 9.062)" fill="#fff"/>
      <path id="Path_241" data-name="Path 241" d="M843.068-41.753A1.25,1.25,0,0,0,844.319-43a1.25,1.25,0,0,0-1.25-1.25A1.251,1.251,0,0,0,841.817-43,1.252,1.252,0,0,0,843.068-41.753Z" transform="translate(7.007 11.398)" fill="#fff"/>
      <path id="Path_242" data-name="Path 242" d="M846.071-44.755a1.25,1.25,0,0,0,1.25-1.25,1.251,1.251,0,0,0-1.25-1.252,1.252,1.252,0,0,0-1.252,1.252A1.252,1.252,0,0,0,846.071-44.755Z" transform="translate(8.175 10.23)" fill="#fff"/>
      <path id="Path_243" data-name="Path 243" d="M840.067-44.755a1.251,1.251,0,0,0,1.252-1.25,1.251,1.251,0,0,0-1.252-1.252,1.252,1.252,0,0,0-1.252,1.252A1.252,1.252,0,0,0,840.067-44.755Z" transform="translate(5.839 10.23)" fill="#fff"/>
      <path id="Path_244" data-name="Path 244" d="M846.071-38.753a1.25,1.25,0,0,0,1.25-1.25,1.25,1.25,0,0,0-1.25-1.25A1.252,1.252,0,0,0,844.819-40,1.252,1.252,0,0,0,846.071-38.753Z" transform="translate(8.175 12.566)" fill="#fff"/>
      <path id="Path_245" data-name="Path 245" d="M840.625-40.543a1.235,1.235,0,0,0-.225-.389Z" transform="translate(6.456 12.691)" fill="#fff"/>
      <path id="Path_246" data-name="Path 246" d="M849.071-47.757a1.237,1.237,0,0,0,.7-.214,1.244,1.244,0,0,0,.552-1.036,1.247,1.247,0,0,0-.552-1.038,1.237,1.237,0,0,0-.7-.214,1.24,1.24,0,0,0-.883.367,1.247,1.247,0,0,0-.367.885,1.243,1.243,0,0,0,.367.883A1.246,1.246,0,0,0,849.071-47.757Z" transform="translate(9.344 9.062)" fill="#fff"/>
      <path id="Path_247" data-name="Path 247" d="M849.071-41.753a1.248,1.248,0,0,0,.7-.214A1.249,1.249,0,0,0,850.323-43a1.244,1.244,0,0,0-.552-1.036,1.237,1.237,0,0,0-.7-.214,1.251,1.251,0,0,0-.883.365,1.249,1.249,0,0,0-.367.885,1.247,1.247,0,0,0,.367.885A1.246,1.246,0,0,0,849.071-41.753Z" transform="translate(9.344 11.398)" fill="#fff"/>
      <path id="Path_248" data-name="Path 248" d="M842.961-38.252a1.245,1.245,0,0,0-.867.351l.52.9.69,1.2a1.246,1.246,0,0,0,.907-1.2A1.251,1.251,0,0,0,842.961-38.252Z" transform="translate(7.115 13.734)" fill="#fff"/>
      <path id="Path_249" data-name="Path 249" d="M843.068-59.764a1.25,1.25,0,0,0,1.25-1.252,1.251,1.251,0,0,0-1.25-1.252,1.253,1.253,0,0,0-1.251,1.252A1.252,1.252,0,0,0,843.068-59.764Z" transform="translate(7.007 4.39)" fill="#fff"/>
      <path id="Path_250" data-name="Path 250" d="M843.068-53.761a1.25,1.25,0,0,0,1.25-1.25,1.25,1.25,0,0,0-1.25-1.252,1.252,1.252,0,0,0-1.251,1.252A1.251,1.251,0,0,0,843.068-53.761Z" transform="translate(7.007 6.726)" fill="#fff"/>
      <path id="Path_251" data-name="Path 251" d="M846.071-56.764a1.25,1.25,0,0,0,1.25-1.25,1.25,1.25,0,0,0-1.25-1.25,1.252,1.252,0,0,0-1.252,1.25A1.252,1.252,0,0,0,846.071-56.764Z" transform="translate(8.175 5.558)" fill="#fff"/>
      <path id="Path_252" data-name="Path 252" d="M840.067-56.764a1.251,1.251,0,0,0,1.252-1.25,1.251,1.251,0,0,0-1.252-1.25,1.252,1.252,0,0,0-1.252,1.25A1.252,1.252,0,0,0,840.067-56.764Z" transform="translate(5.839 5.558)" fill="#fff"/>
      <path id="Path_253" data-name="Path 253" d="M846.071-50.76a1.251,1.251,0,0,0,1.25-1.252,1.25,1.25,0,0,0-1.25-1.249,1.251,1.251,0,0,0-1.252,1.249A1.252,1.252,0,0,0,846.071-50.76Z" transform="translate(8.175 7.895)" fill="#fff"/>
      <path id="Path_254" data-name="Path 254" d="M840.067-50.76a1.251,1.251,0,0,0,1.252-1.252,1.25,1.25,0,0,0-1.252-1.249,1.251,1.251,0,0,0-1.252,1.249A1.252,1.252,0,0,0,840.067-50.76Z" transform="translate(5.839 7.895)" fill="#fff"/>
      <path id="Path_255" data-name="Path 255" d="M849.071-59.764a1.248,1.248,0,0,0,.7-.214,1.249,1.249,0,0,0,.552-1.038,1.249,1.249,0,0,0-.552-1.038,1.248,1.248,0,0,0-.7-.214,1.246,1.246,0,0,0-.883.367,1.247,1.247,0,0,0-.367.885,1.247,1.247,0,0,0,.367.885A1.246,1.246,0,0,0,849.071-59.764Z" transform="translate(9.344 4.39)" fill="#fff"/>
      <path id="Path_256" data-name="Path 256" d="M849.071-53.761a1.247,1.247,0,0,0,.7-.213,1.249,1.249,0,0,0,.552-1.038,1.249,1.249,0,0,0-.552-1.038,1.248,1.248,0,0,0-.7-.214,1.246,1.246,0,0,0-.883.367,1.247,1.247,0,0,0-.367.885,1.247,1.247,0,0,0,.367.885A1.245,1.245,0,0,0,849.071-53.761Z" transform="translate(9.344 6.726)" fill="#fff"/>
      <path id="Path_257" data-name="Path 257" d="M843.068-72.054a1.25,1.25,0,0,0,1.25-1.25,1.3,1.3,0,0,0-.024-.246h-2.453a1.3,1.3,0,0,0-.025.246A1.251,1.251,0,0,0,843.068-72.054Z" transform="translate(7.007)" fill="#fff"/>
      <path id="Path_258" data-name="Path 258" d="M843.068-65.768a1.25,1.25,0,0,0,1.25-1.252,1.25,1.25,0,0,0-1.25-1.25,1.251,1.251,0,0,0-1.251,1.25A1.252,1.252,0,0,0,843.068-65.768Z" transform="translate(7.007 2.054)" fill="#fff"/>
      <path id="Path_259" data-name="Path 259" d="M846.071-68.77a1.25,1.25,0,0,0,1.25-1.25,1.251,1.251,0,0,0-1.25-1.252,1.252,1.252,0,0,0-1.252,1.252A1.252,1.252,0,0,0,846.071-68.77Z" transform="translate(8.175 0.886)" fill="#fff"/>
      <path id="Path_260" data-name="Path 260" d="M840.067-68.77a1.251,1.251,0,0,0,1.252-1.25,1.251,1.251,0,0,0-1.252-1.252,1.252,1.252,0,0,0-1.252,1.252A1.252,1.252,0,0,0,840.067-68.77Z" transform="translate(5.839 0.886)" fill="#fff"/>
      <path id="Path_261" data-name="Path 261" d="M846.071-62.768a1.25,1.25,0,0,0,1.25-1.25,1.25,1.25,0,0,0-1.25-1.25,1.252,1.252,0,0,0-1.252,1.25A1.252,1.252,0,0,0,846.071-62.768Z" transform="translate(8.175 3.222)" fill="#fff"/>
      <path id="Path_262" data-name="Path 262" d="M840.067-62.768a1.251,1.251,0,0,0,1.252-1.25,1.251,1.251,0,0,0-1.252-1.25,1.252,1.252,0,0,0-1.252,1.25A1.252,1.252,0,0,0,840.067-62.768Z" transform="translate(5.839 3.222)" fill="#fff"/>
      <path id="Path_263" data-name="Path 263" d="M849.071-72.054a1.237,1.237,0,0,0,.7-.214,1.244,1.244,0,0,0,.552-1.036,1.187,1.187,0,0,0-.025-.246h-2.452a1.3,1.3,0,0,0-.025.246,1.249,1.249,0,0,0,.367.885A1.251,1.251,0,0,0,849.071-72.054Z" transform="translate(9.344)" fill="#fff"/>
      <path id="Path_264" data-name="Path 264" d="M849.071-65.768a1.248,1.248,0,0,0,.7-.214,1.249,1.249,0,0,0,.552-1.038,1.244,1.244,0,0,0-.552-1.036,1.237,1.237,0,0,0-.7-.214,1.246,1.246,0,0,0-.883.367,1.243,1.243,0,0,0-.367.883,1.247,1.247,0,0,0,.367.885A1.246,1.246,0,0,0,849.071-65.768Z" transform="translate(9.344 2.054)" fill="#fff"/>
      <path id="Path_265" data-name="Path 265" d="M857.793-11.234a1.218,1.218,0,0,0-.237.024l1.179,2.042a1.239,1.239,0,0,0,.31-.815A1.251,1.251,0,0,0,857.793-11.234Z" transform="translate(13.131 24.246)" fill="#fff"/>
      <path id="Path_266" data-name="Path 266" d="M861.079-11.734a1.243,1.243,0,0,0,.7-.214,1.249,1.249,0,0,0,.552-1.038,1.249,1.249,0,0,0-.552-1.038,1.243,1.243,0,0,0-.7-.214,1.252,1.252,0,0,0-1.225,1,1.265,1.265,0,0,0-.026.253,1.265,1.265,0,0,0,.026.253A1.252,1.252,0,0,0,861.079-11.734Z" transform="translate(14.015 23.078)" fill="#fff"/>
      <path id="Path_267" data-name="Path 267" d="M860.389-5.94a1.24,1.24,0,0,0,.69.208,1.242,1.242,0,0,0,.7-.213,1.249,1.249,0,0,0,.552-1.038,1.249,1.249,0,0,0-.552-1.038,1.243,1.243,0,0,0-.7-.214,1.252,1.252,0,0,0-1.225,1,1.265,1.265,0,0,0-.026.253.823.823,0,0,0,.01.085Z" transform="translate(14.015 25.414)" fill="#fff"/>
      <path id="Path_268" data-name="Path 268" d="M855.075-23.742a1.251,1.251,0,0,0,1.252-1.25,1.251,1.251,0,0,0-1.252-1.252,1.251,1.251,0,0,0-1.25,1.252A1.25,1.25,0,0,0,855.075-23.742Z" transform="translate(11.68 18.406)" fill="#fff"/>
      <path id="Path_269" data-name="Path 269" d="M855.075-17.738a1.251,1.251,0,0,0,1.252-1.252,1.251,1.251,0,0,0-1.252-1.25,1.25,1.25,0,0,0-1.25,1.25A1.251,1.251,0,0,0,855.075-17.738Z" transform="translate(11.68 20.742)" fill="#fff"/>
      <path id="Path_270" data-name="Path 270" d="M858.078-20.74a1.251,1.251,0,0,0,1.252-1.25,1.251,1.251,0,0,0-1.252-1.252,1.252,1.252,0,0,0-1.252,1.252A1.252,1.252,0,0,0,858.078-20.74Z" transform="translate(12.847 19.574)" fill="#fff"/>
      <path id="Path_271" data-name="Path 271" d="M852.039-23.242a1.246,1.246,0,0,0-1.127.718l1.024,1.772c.035,0,.068.011.1.011a1.251,1.251,0,0,0,1.252-1.25A1.251,1.251,0,0,0,852.039-23.242Z" transform="translate(10.546 19.574)" fill="#fff"/>
      <path id="Path_272" data-name="Path 272" d="M858.078-14.738a1.251,1.251,0,0,0,1.252-1.25,1.251,1.251,0,0,0-1.252-1.25,1.252,1.252,0,0,0-1.252,1.25A1.252,1.252,0,0,0,858.078-14.738Z" transform="translate(12.847 21.91)" fill="#fff"/>
      <path id="Path_273" data-name="Path 273" d="M861.079-23.742a1.243,1.243,0,0,0,.7-.214,1.244,1.244,0,0,0,.552-1.036,1.251,1.251,0,0,0-.552-1.039,1.242,1.242,0,0,0-.7-.213,1.25,1.25,0,0,0-1.225,1,1.254,1.254,0,0,0-.026.253,1.251,1.251,0,0,0,.026.251A1.25,1.25,0,0,0,861.079-23.742Z" transform="translate(14.015 18.406)" fill="#fff"/>
      <path id="Path_274" data-name="Path 274" d="M861.079-17.738a1.243,1.243,0,0,0,.7-.214,1.249,1.249,0,0,0,.552-1.038,1.249,1.249,0,0,0-.552-1.038,1.242,1.242,0,0,0-.7-.213,1.25,1.25,0,0,0-1.225,1,1.241,1.241,0,0,0-.026.251,1.265,1.265,0,0,0,.026.253A1.252,1.252,0,0,0,861.079-17.738Z" transform="translate(14.015 20.742)" fill="#fff"/>
      <path id="Path_275" data-name="Path 275" d="M855.075-35.749A1.251,1.251,0,0,0,856.327-37a1.252,1.252,0,0,0-1.252-1.252A1.251,1.251,0,0,0,853.825-37,1.251,1.251,0,0,0,855.075-35.749Z" transform="translate(11.68 13.734)" fill="#fff"/>
      <path id="Path_276" data-name="Path 276" d="M855.075-29.746A1.251,1.251,0,0,0,856.327-31a1.251,1.251,0,0,0-1.252-1.252A1.251,1.251,0,0,0,853.825-31,1.25,1.25,0,0,0,855.075-29.746Z" transform="translate(11.68 16.07)" fill="#fff"/>
      <path id="Path_277" data-name="Path 277" d="M858.078-32.749A1.251,1.251,0,0,0,859.329-34a1.251,1.251,0,0,0-1.252-1.25A1.252,1.252,0,0,0,856.826-34,1.252,1.252,0,0,0,858.078-32.749Z" transform="translate(12.847 14.902)" fill="#fff"/>
      <path id="Path_278" data-name="Path 278" d="M852.073-32.749A1.251,1.251,0,0,0,853.325-34a1.251,1.251,0,0,0-1.252-1.25,1.251,1.251,0,0,0-1.25,1.25A1.251,1.251,0,0,0,852.073-32.749Z" transform="translate(10.512 14.902)" fill="#fff"/>
      <path id="Path_279" data-name="Path 279" d="M858.078-26.745A1.251,1.251,0,0,0,859.329-28a1.25,1.25,0,0,0-1.252-1.249A1.251,1.251,0,0,0,856.826-28,1.252,1.252,0,0,0,858.078-26.745Z" transform="translate(12.847 17.238)" fill="#fff"/>
      <path id="Path_280" data-name="Path 280" d="M852.073-26.745A1.251,1.251,0,0,0,853.325-28a1.25,1.25,0,0,0-1.252-1.249A1.251,1.251,0,0,0,850.823-28,1.251,1.251,0,0,0,852.073-26.745Z" transform="translate(10.512 17.238)" fill="#fff"/>
      <path id="Path_281" data-name="Path 281" d="M861.079-35.749a1.243,1.243,0,0,0,.7-.214A1.249,1.249,0,0,0,862.33-37a1.249,1.249,0,0,0-.552-1.038,1.243,1.243,0,0,0-.7-.214,1.251,1.251,0,0,0-1.225,1,1.241,1.241,0,0,0-.026.251,1.265,1.265,0,0,0,.026.253A1.252,1.252,0,0,0,861.079-35.749Z" transform="translate(14.015 13.734)" fill="#fff"/>
      <path id="Path_282" data-name="Path 282" d="M861.079-29.746a1.242,1.242,0,0,0,.7-.213A1.249,1.249,0,0,0,862.33-31a1.249,1.249,0,0,0-.552-1.038,1.243,1.243,0,0,0-.7-.214,1.252,1.252,0,0,0-1.225,1,1.265,1.265,0,0,0-.026.253,1.241,1.241,0,0,0,.026.251A1.25,1.25,0,0,0,861.079-29.746Z" transform="translate(14.015 16.07)" fill="#fff"/>
      <path id="Path_283" data-name="Path 283" d="M849.355-26.038a1.238,1.238,0,0,0-.465-.189L849.6-25l.235.406a1.225,1.225,0,0,0,.074-.406A1.251,1.251,0,0,0,849.355-26.038Z" transform="translate(9.759 18.413)" fill="#fff"/>
      <path id="Path_284" data-name="Path 284" d="M855.075-47.757a1.251,1.251,0,0,0,1.252-1.25,1.251,1.251,0,0,0-1.252-1.252,1.251,1.251,0,0,0-1.25,1.252A1.25,1.25,0,0,0,855.075-47.757Z" transform="translate(11.68 9.062)" fill="#fff"/>
      <path id="Path_285" data-name="Path 285" d="M855.075-41.753A1.251,1.251,0,0,0,856.327-43a1.251,1.251,0,0,0-1.252-1.25,1.25,1.25,0,0,0-1.25,1.25A1.251,1.251,0,0,0,855.075-41.753Z" transform="translate(11.68 11.398)" fill="#fff"/>
      <path id="Path_286" data-name="Path 286" d="M858.078-44.755a1.251,1.251,0,0,0,1.252-1.25,1.251,1.251,0,0,0-1.252-1.252,1.252,1.252,0,0,0-1.252,1.252A1.252,1.252,0,0,0,858.078-44.755Z" transform="translate(12.847 10.23)" fill="#fff"/>
      <path id="Path_287" data-name="Path 287" d="M852.073-44.755a1.251,1.251,0,0,0,1.252-1.25,1.251,1.251,0,0,0-1.252-1.252,1.251,1.251,0,0,0-1.25,1.252A1.251,1.251,0,0,0,852.073-44.755Z" transform="translate(10.512 10.23)" fill="#fff"/>
      <path id="Path_288" data-name="Path 288" d="M858.078-38.753A1.251,1.251,0,0,0,859.329-40a1.251,1.251,0,0,0-1.252-1.25A1.252,1.252,0,0,0,856.826-40,1.252,1.252,0,0,0,858.078-38.753Z" transform="translate(12.847 12.566)" fill="#fff"/>
      <path id="Path_289" data-name="Path 289" d="M852.073-38.753A1.251,1.251,0,0,0,853.325-40a1.251,1.251,0,0,0-1.252-1.25,1.251,1.251,0,0,0-1.25,1.25A1.251,1.251,0,0,0,852.073-38.753Z" transform="translate(10.512 12.566)" fill="#fff"/>
      <path id="Path_290" data-name="Path 290" d="M861.079-47.757a1.233,1.233,0,0,0,.7-.214,1.244,1.244,0,0,0,.552-1.036,1.247,1.247,0,0,0-.552-1.038,1.233,1.233,0,0,0-.7-.214,1.252,1.252,0,0,0-1.225,1,1.254,1.254,0,0,0-.026.253,1.251,1.251,0,0,0,.026.251A1.25,1.25,0,0,0,861.079-47.757Z" transform="translate(14.015 9.062)" fill="#fff"/>
      <path id="Path_291" data-name="Path 291" d="M861.079-41.753a1.243,1.243,0,0,0,.7-.214A1.249,1.249,0,0,0,862.33-43a1.244,1.244,0,0,0-.552-1.036,1.233,1.233,0,0,0-.7-.214,1.25,1.25,0,0,0-1.225,1,1.241,1.241,0,0,0-.026.251,1.254,1.254,0,0,0,.026.253A1.252,1.252,0,0,0,861.079-41.753Z" transform="translate(14.015 11.398)" fill="#fff"/>
      <path id="Path_292" data-name="Path 292" d="M855.075-59.764a1.251,1.251,0,0,0,1.252-1.252,1.252,1.252,0,0,0-1.252-1.252,1.251,1.251,0,0,0-1.25,1.252A1.251,1.251,0,0,0,855.075-59.764Z" transform="translate(11.68 4.39)" fill="#fff"/>
      <path id="Path_293" data-name="Path 293" d="M855.075-53.761a1.251,1.251,0,0,0,1.252-1.25,1.251,1.251,0,0,0-1.252-1.252,1.251,1.251,0,0,0-1.25,1.252A1.25,1.25,0,0,0,855.075-53.761Z" transform="translate(11.68 6.726)" fill="#fff"/>
      <path id="Path_294" data-name="Path 294" d="M858.078-56.764a1.251,1.251,0,0,0,1.252-1.25,1.251,1.251,0,0,0-1.252-1.25,1.252,1.252,0,0,0-1.252,1.25A1.252,1.252,0,0,0,858.078-56.764Z" transform="translate(12.847 5.558)" fill="#fff"/>
      <path id="Path_295" data-name="Path 295" d="M852.073-56.764a1.251,1.251,0,0,0,1.252-1.25,1.251,1.251,0,0,0-1.252-1.25,1.251,1.251,0,0,0-1.25,1.25A1.251,1.251,0,0,0,852.073-56.764Z" transform="translate(10.512 5.558)" fill="#fff"/>
      <path id="Path_296" data-name="Path 296" d="M858.078-50.76a1.251,1.251,0,0,0,1.252-1.252,1.25,1.25,0,0,0-1.252-1.249,1.251,1.251,0,0,0-1.252,1.249A1.252,1.252,0,0,0,858.078-50.76Z" transform="translate(12.847 7.895)" fill="#fff"/>
      <path id="Path_297" data-name="Path 297" d="M852.073-50.76a1.251,1.251,0,0,0,1.252-1.252,1.25,1.25,0,0,0-1.252-1.249,1.251,1.251,0,0,0-1.25,1.249A1.251,1.251,0,0,0,852.073-50.76Z" transform="translate(10.512 7.895)" fill="#fff"/>
      <path id="Path_298" data-name="Path 298" d="M861.079-59.764a1.243,1.243,0,0,0,.7-.214,1.249,1.249,0,0,0,.552-1.038,1.249,1.249,0,0,0-.552-1.038,1.243,1.243,0,0,0-.7-.214,1.251,1.251,0,0,0-1.225,1,1.241,1.241,0,0,0-.026.251,1.265,1.265,0,0,0,.026.253A1.252,1.252,0,0,0,861.079-59.764Z" transform="translate(14.015 4.39)" fill="#fff"/>
      <path id="Path_299" data-name="Path 299" d="M861.079-53.761a1.242,1.242,0,0,0,.7-.213,1.249,1.249,0,0,0,.552-1.038,1.249,1.249,0,0,0-.552-1.038,1.243,1.243,0,0,0-.7-.214,1.252,1.252,0,0,0-1.225,1,1.265,1.265,0,0,0-.026.253,1.241,1.241,0,0,0,.026.251A1.25,1.25,0,0,0,861.079-53.761Z" transform="translate(14.015 6.726)" fill="#fff"/>
      <path id="Path_300" data-name="Path 300" d="M855.075-72.054a1.251,1.251,0,0,0,1.252-1.25,1.286,1.286,0,0,0-.025-.246h-2.453a1.3,1.3,0,0,0-.024.246A1.25,1.25,0,0,0,855.075-72.054Z" transform="translate(11.68)" fill="#fff"/>
      <path id="Path_301" data-name="Path 301" d="M855.075-65.768a1.251,1.251,0,0,0,1.252-1.252,1.251,1.251,0,0,0-1.252-1.25,1.25,1.25,0,0,0-1.25,1.25A1.251,1.251,0,0,0,855.075-65.768Z" transform="translate(11.68 2.054)" fill="#fff"/>
      <path id="Path_302" data-name="Path 302" d="M858.078-68.77a1.251,1.251,0,0,0,1.252-1.25,1.251,1.251,0,0,0-1.252-1.252,1.252,1.252,0,0,0-1.252,1.252A1.252,1.252,0,0,0,858.078-68.77Z" transform="translate(12.847 0.886)" fill="#fff"/>
      <path id="Path_303" data-name="Path 303" d="M852.073-68.77a1.251,1.251,0,0,0,1.252-1.25,1.251,1.251,0,0,0-1.252-1.252,1.251,1.251,0,0,0-1.25,1.252A1.251,1.251,0,0,0,852.073-68.77Z" transform="translate(10.512 0.886)" fill="#fff"/>
      <path id="Path_304" data-name="Path 304" d="M858.078-62.768a1.251,1.251,0,0,0,1.252-1.25,1.251,1.251,0,0,0-1.252-1.25,1.252,1.252,0,0,0-1.252,1.25A1.252,1.252,0,0,0,858.078-62.768Z" transform="translate(12.847 3.222)" fill="#fff"/>
      <path id="Path_305" data-name="Path 305" d="M852.073-62.768a1.251,1.251,0,0,0,1.252-1.25,1.251,1.251,0,0,0-1.252-1.25,1.251,1.251,0,0,0-1.25,1.25A1.251,1.251,0,0,0,852.073-62.768Z" transform="translate(10.512 3.222)" fill="#fff"/>
      <path id="Path_306" data-name="Path 306" d="M861.079-72.054a1.233,1.233,0,0,0,.7-.214,1.244,1.244,0,0,0,.552-1.036,1.2,1.2,0,0,0-.025-.246h-2.452a1.3,1.3,0,0,0-.025.246,1.241,1.241,0,0,0,.026.251A1.25,1.25,0,0,0,861.079-72.054Z" transform="translate(14.015)" fill="#fff"/>
      <path id="Path_307" data-name="Path 307" d="M861.079-65.768a1.243,1.243,0,0,0,.7-.214,1.249,1.249,0,0,0,.552-1.038,1.244,1.244,0,0,0-.552-1.036,1.233,1.233,0,0,0-.7-.214,1.25,1.25,0,0,0-1.225,1,1.241,1.241,0,0,0-.026.251,1.254,1.254,0,0,0,.026.253A1.252,1.252,0,0,0,861.079-65.768Z" transform="translate(14.015 2.054)" fill="#fff"/>
      <path id="Path_308" data-name="Path 308" d="M867.082.273a1.251,1.251,0,0,0,1.252-1.25,1.251,1.251,0,0,0-1.252-1.252,1.251,1.251,0,0,0-1.25,1.252A1.25,1.25,0,0,0,867.082.273Z" transform="translate(16.351 27.75)" fill="#fff"/>
      <path id="Path_309" data-name="Path 309" d="M866.907,3.775a1.239,1.239,0,0,0-.624.172l.921,1.595.718-1.243A1.245,1.245,0,0,0,866.907,3.775Z" transform="translate(16.527 30.086)" fill="#fff"/>
      <path id="Path_310" data-name="Path 310" d="M869.576.852a1.252,1.252,0,0,0-.742,1.142c0,.042.008.082.013.124Z" transform="translate(17.519 28.949)" fill="#fff"/>
      <path id="Path_311" data-name="Path 311" d="M867.082-11.734a1.251,1.251,0,0,0,1.252-1.252,1.252,1.252,0,0,0-1.252-1.252,1.251,1.251,0,0,0-1.25,1.252A1.251,1.251,0,0,0,867.082-11.734Z" transform="translate(16.351 23.078)" fill="#fff"/>
      <path id="Path_312" data-name="Path 312" d="M867.082-5.731a1.251,1.251,0,0,0,1.252-1.25,1.251,1.251,0,0,0-1.252-1.252,1.251,1.251,0,0,0-1.25,1.252A1.25,1.25,0,0,0,867.082-5.731Z" transform="translate(16.351 25.414)" fill="#fff"/>
      <path id="Path_313" data-name="Path 313" d="M870.084-8.734a1.251,1.251,0,0,0,1.252-1.25,1.251,1.251,0,0,0-1.252-1.25,1.25,1.25,0,0,0-1.25,1.25A1.25,1.25,0,0,0,870.084-8.734Z" transform="translate(17.519 24.246)" fill="#fff"/>
      <path id="Path_314" data-name="Path 314" d="M864.081-8.734a1.25,1.25,0,0,0,1.25-1.25,1.25,1.25,0,0,0-1.25-1.25,1.251,1.251,0,0,0-1.251,1.25A1.251,1.251,0,0,0,864.081-8.734Z" transform="translate(15.183 24.246)" fill="#fff"/>
      <path id="Path_315" data-name="Path 315" d="M870.084-2.729a1.251,1.251,0,0,0,1.252-1.252,1.251,1.251,0,0,0-1.252-1.25,1.251,1.251,0,0,0-1.25,1.25A1.251,1.251,0,0,0,870.084-2.729Z" transform="translate(17.519 26.582)" fill="#fff"/>
      <path id="Path_316" data-name="Path 316" d="M864.081-2.729a1.25,1.25,0,0,0,1.25-1.252,1.251,1.251,0,0,0-1.25-1.25,1.252,1.252,0,0,0-1.251,1.25A1.252,1.252,0,0,0,864.081-2.729Z" transform="translate(15.183 26.582)" fill="#fff"/>
      <path id="Path_317" data-name="Path 317" d="M873.086-11.734a1.248,1.248,0,0,0,.7-.214,1.252,1.252,0,0,0,.552-1.038,1.252,1.252,0,0,0-.552-1.038,1.248,1.248,0,0,0-.7-.214,1.251,1.251,0,0,0-1.25,1.252A1.251,1.251,0,0,0,873.086-11.734Z" transform="translate(18.687 23.078)" fill="#fff"/>
      <path id="Path_318" data-name="Path 318" d="M873.086-5.731a1.247,1.247,0,0,0,.7-.213,1.252,1.252,0,0,0,.552-1.038,1.252,1.252,0,0,0-.552-1.038,1.248,1.248,0,0,0-.7-.214,1.251,1.251,0,0,0-1.25,1.252A1.25,1.25,0,0,0,873.086-5.731Z" transform="translate(18.687 25.414)" fill="#fff"/>
      <path id="Path_319" data-name="Path 319" d="M867.082-23.742a1.251,1.251,0,0,0,1.252-1.25,1.251,1.251,0,0,0-1.252-1.252,1.251,1.251,0,0,0-1.25,1.252A1.25,1.25,0,0,0,867.082-23.742Z" transform="translate(16.351 18.406)" fill="#fff"/>
      <path id="Path_320" data-name="Path 320" d="M867.082-17.738a1.251,1.251,0,0,0,1.252-1.252,1.251,1.251,0,0,0-1.252-1.25,1.25,1.25,0,0,0-1.25,1.25A1.251,1.251,0,0,0,867.082-17.738Z" transform="translate(16.351 20.742)" fill="#fff"/>
      <path id="Path_321" data-name="Path 321" d="M870.084-20.74a1.251,1.251,0,0,0,1.252-1.25,1.251,1.251,0,0,0-1.252-1.252,1.251,1.251,0,0,0-1.25,1.252A1.25,1.25,0,0,0,870.084-20.74Z" transform="translate(17.519 19.574)" fill="#fff"/>
      <path id="Path_322" data-name="Path 322" d="M864.081-20.74a1.25,1.25,0,0,0,1.25-1.25,1.25,1.25,0,0,0-1.25-1.252,1.252,1.252,0,0,0-1.251,1.252A1.251,1.251,0,0,0,864.081-20.74Z" transform="translate(15.183 19.574)" fill="#fff"/>
      <path id="Path_323" data-name="Path 323" d="M870.084-14.738a1.251,1.251,0,0,0,1.252-1.25,1.251,1.251,0,0,0-1.252-1.25,1.25,1.25,0,0,0-1.25,1.25A1.25,1.25,0,0,0,870.084-14.738Z" transform="translate(17.519 21.91)" fill="#fff"/>
      <path id="Path_324" data-name="Path 324" d="M864.081-14.738a1.25,1.25,0,0,0,1.25-1.25,1.25,1.25,0,0,0-1.25-1.25,1.251,1.251,0,0,0-1.251,1.25A1.251,1.251,0,0,0,864.081-14.738Z" transform="translate(15.183 21.91)" fill="#fff"/>
      <path id="Path_325" data-name="Path 325" d="M873.086-23.742a1.248,1.248,0,0,0,.7-.214,1.248,1.248,0,0,0,.552-1.036,1.255,1.255,0,0,0-.552-1.039,1.247,1.247,0,0,0-.7-.213,1.251,1.251,0,0,0-1.25,1.252A1.25,1.25,0,0,0,873.086-23.742Z" transform="translate(18.687 18.406)" fill="#fff"/>
      <path id="Path_326" data-name="Path 326" d="M873.086-17.738a1.248,1.248,0,0,0,.7-.214,1.252,1.252,0,0,0,.552-1.038,1.252,1.252,0,0,0-.552-1.038,1.247,1.247,0,0,0-.7-.213,1.25,1.25,0,0,0-1.25,1.25A1.251,1.251,0,0,0,873.086-17.738Z" transform="translate(18.687 20.742)" fill="#fff"/>
      <path id="Path_327" data-name="Path 327" d="M867.082-35.749A1.251,1.251,0,0,0,868.334-37a1.252,1.252,0,0,0-1.252-1.252A1.251,1.251,0,0,0,865.832-37,1.251,1.251,0,0,0,867.082-35.749Z" transform="translate(16.351 13.734)" fill="#fff"/>
      <path id="Path_328" data-name="Path 328" d="M867.082-29.746A1.251,1.251,0,0,0,868.334-31a1.251,1.251,0,0,0-1.252-1.252A1.251,1.251,0,0,0,865.832-31,1.25,1.25,0,0,0,867.082-29.746Z" transform="translate(16.351 16.07)" fill="#fff"/>
      <path id="Path_329" data-name="Path 329" d="M870.084-32.749A1.251,1.251,0,0,0,871.336-34a1.251,1.251,0,0,0-1.252-1.25,1.25,1.25,0,0,0-1.25,1.25A1.25,1.25,0,0,0,870.084-32.749Z" transform="translate(17.519 14.902)" fill="#fff"/>
      <path id="Path_330" data-name="Path 330" d="M864.081-32.749a1.25,1.25,0,0,0,1.25-1.25,1.25,1.25,0,0,0-1.25-1.25A1.251,1.251,0,0,0,862.83-34,1.251,1.251,0,0,0,864.081-32.749Z" transform="translate(15.183 14.902)" fill="#fff"/>
      <path id="Path_331" data-name="Path 331" d="M870.084-26.745A1.251,1.251,0,0,0,871.336-28a1.25,1.25,0,0,0-1.252-1.249A1.25,1.25,0,0,0,868.834-28,1.251,1.251,0,0,0,870.084-26.745Z" transform="translate(17.519 17.238)" fill="#fff"/>
      <path id="Path_332" data-name="Path 332" d="M864.081-26.745A1.25,1.25,0,0,0,865.332-28a1.25,1.25,0,0,0-1.25-1.249A1.251,1.251,0,0,0,862.83-28,1.252,1.252,0,0,0,864.081-26.745Z" transform="translate(15.183 17.238)" fill="#fff"/>
      <path id="Path_333" data-name="Path 333" d="M873.086-35.749a1.248,1.248,0,0,0,.7-.214A1.252,1.252,0,0,0,874.338-37a1.252,1.252,0,0,0-.552-1.038,1.248,1.248,0,0,0-.7-.214A1.251,1.251,0,0,0,871.836-37,1.251,1.251,0,0,0,873.086-35.749Z" transform="translate(18.687 13.734)" fill="#fff"/>
      <path id="Path_334" data-name="Path 334" d="M873.086-29.746a1.247,1.247,0,0,0,.7-.213A1.252,1.252,0,0,0,874.338-31a1.252,1.252,0,0,0-.552-1.038,1.248,1.248,0,0,0-.7-.214A1.251,1.251,0,0,0,871.836-31,1.25,1.25,0,0,0,873.086-29.746Z" transform="translate(18.687 16.07)" fill="#fff"/>
      <path id="Path_335" data-name="Path 335" d="M867.082-47.757a1.251,1.251,0,0,0,1.252-1.25,1.251,1.251,0,0,0-1.252-1.252,1.251,1.251,0,0,0-1.25,1.252A1.25,1.25,0,0,0,867.082-47.757Z" transform="translate(16.351 9.062)" fill="#fff"/>
      <path id="Path_336" data-name="Path 336" d="M867.082-41.753A1.251,1.251,0,0,0,868.334-43a1.251,1.251,0,0,0-1.252-1.25,1.25,1.25,0,0,0-1.25,1.25A1.251,1.251,0,0,0,867.082-41.753Z" transform="translate(16.351 11.398)" fill="#fff"/>
      <path id="Path_337" data-name="Path 337" d="M870.084-44.755a1.251,1.251,0,0,0,1.252-1.25,1.251,1.251,0,0,0-1.252-1.252,1.251,1.251,0,0,0-1.25,1.252A1.25,1.25,0,0,0,870.084-44.755Z" transform="translate(17.519 10.23)" fill="#fff"/>
      <path id="Path_338" data-name="Path 338" d="M864.081-44.755a1.25,1.25,0,0,0,1.25-1.25,1.25,1.25,0,0,0-1.25-1.252,1.252,1.252,0,0,0-1.251,1.252A1.251,1.251,0,0,0,864.081-44.755Z" transform="translate(15.183 10.23)" fill="#fff"/>
      <path id="Path_339" data-name="Path 339" d="M870.084-38.753A1.251,1.251,0,0,0,871.336-40a1.251,1.251,0,0,0-1.252-1.25,1.25,1.25,0,0,0-1.25,1.25A1.25,1.25,0,0,0,870.084-38.753Z" transform="translate(17.519 12.566)" fill="#fff"/>
      <path id="Path_340" data-name="Path 340" d="M864.081-38.753a1.25,1.25,0,0,0,1.25-1.25,1.25,1.25,0,0,0-1.25-1.25A1.251,1.251,0,0,0,862.83-40,1.251,1.251,0,0,0,864.081-38.753Z" transform="translate(15.183 12.566)" fill="#fff"/>
      <path id="Path_341" data-name="Path 341" d="M873.086-47.757a1.238,1.238,0,0,0,.7-.214,1.248,1.248,0,0,0,.552-1.036,1.25,1.25,0,0,0-.552-1.038,1.238,1.238,0,0,0-.7-.214,1.251,1.251,0,0,0-1.25,1.252A1.25,1.25,0,0,0,873.086-47.757Z" transform="translate(18.687 9.062)" fill="#fff"/>
      <path id="Path_342" data-name="Path 342" d="M873.086-41.753a1.248,1.248,0,0,0,.7-.214A1.252,1.252,0,0,0,874.338-43a1.248,1.248,0,0,0-.552-1.036,1.238,1.238,0,0,0-.7-.214,1.25,1.25,0,0,0-1.25,1.25A1.251,1.251,0,0,0,873.086-41.753Z" transform="translate(18.687 11.398)" fill="#fff"/>
      <path id="Path_343" data-name="Path 343" d="M867.082-59.764a1.251,1.251,0,0,0,1.252-1.252,1.252,1.252,0,0,0-1.252-1.252,1.251,1.251,0,0,0-1.25,1.252A1.251,1.251,0,0,0,867.082-59.764Z" transform="translate(16.351 4.39)" fill="#fff"/>
      <path id="Path_344" data-name="Path 344" d="M867.082-53.761a1.251,1.251,0,0,0,1.252-1.25,1.251,1.251,0,0,0-1.252-1.252,1.251,1.251,0,0,0-1.25,1.252A1.25,1.25,0,0,0,867.082-53.761Z" transform="translate(16.351 6.726)" fill="#fff"/>
      <path id="Path_345" data-name="Path 345" d="M870.084-56.764a1.251,1.251,0,0,0,1.252-1.25,1.251,1.251,0,0,0-1.252-1.25,1.25,1.25,0,0,0-1.25,1.25A1.25,1.25,0,0,0,870.084-56.764Z" transform="translate(17.519 5.558)" fill="#fff"/>
      <path id="Path_346" data-name="Path 346" d="M864.081-56.764a1.25,1.25,0,0,0,1.25-1.25,1.25,1.25,0,0,0-1.25-1.25,1.251,1.251,0,0,0-1.251,1.25A1.251,1.251,0,0,0,864.081-56.764Z" transform="translate(15.183 5.558)" fill="#fff"/>
      <path id="Path_347" data-name="Path 347" d="M870.084-50.76a1.251,1.251,0,0,0,1.252-1.252,1.25,1.25,0,0,0-1.252-1.249,1.25,1.25,0,0,0-1.25,1.249A1.251,1.251,0,0,0,870.084-50.76Z" transform="translate(17.519 7.895)" fill="#fff"/>
      <path id="Path_348" data-name="Path 348" d="M864.081-50.76a1.25,1.25,0,0,0,1.25-1.252,1.25,1.25,0,0,0-1.25-1.249,1.251,1.251,0,0,0-1.251,1.249A1.252,1.252,0,0,0,864.081-50.76Z" transform="translate(15.183 7.895)" fill="#fff"/>
      <path id="Path_349" data-name="Path 349" d="M873.086-59.764a1.248,1.248,0,0,0,.7-.214,1.252,1.252,0,0,0,.552-1.038,1.252,1.252,0,0,0-.552-1.038,1.248,1.248,0,0,0-.7-.214,1.251,1.251,0,0,0-1.25,1.252A1.251,1.251,0,0,0,873.086-59.764Z" transform="translate(18.687 4.39)" fill="#fff"/>
      <path id="Path_350" data-name="Path 350" d="M873.086-53.761a1.247,1.247,0,0,0,.7-.213,1.252,1.252,0,0,0,.552-1.038,1.252,1.252,0,0,0-.552-1.038,1.248,1.248,0,0,0-.7-.214,1.251,1.251,0,0,0-1.25,1.252A1.25,1.25,0,0,0,873.086-53.761Z" transform="translate(18.687 6.726)" fill="#fff"/>
      <path id="Path_351" data-name="Path 351" d="M867.082-72.054a1.251,1.251,0,0,0,1.252-1.25,1.2,1.2,0,0,0-.025-.246h-2.452a1.2,1.2,0,0,0-.025.246A1.25,1.25,0,0,0,867.082-72.054Z" transform="translate(16.351)" fill="#fff"/>
      <path id="Path_352" data-name="Path 352" d="M867.082-65.768a1.251,1.251,0,0,0,1.252-1.252,1.251,1.251,0,0,0-1.252-1.25,1.25,1.25,0,0,0-1.25,1.25A1.251,1.251,0,0,0,867.082-65.768Z" transform="translate(16.351 2.054)" fill="#fff"/>
      <path id="Path_353" data-name="Path 353" d="M870.084-68.77a1.251,1.251,0,0,0,1.252-1.25,1.251,1.251,0,0,0-1.252-1.252,1.251,1.251,0,0,0-1.25,1.252A1.25,1.25,0,0,0,870.084-68.77Z" transform="translate(17.519 0.886)" fill="#fff"/>
      <path id="Path_354" data-name="Path 354" d="M864.081-68.77a1.25,1.25,0,0,0,1.25-1.25,1.25,1.25,0,0,0-1.25-1.252,1.252,1.252,0,0,0-1.251,1.252A1.251,1.251,0,0,0,864.081-68.77Z" transform="translate(15.183 0.886)" fill="#fff"/>
      <path id="Path_355" data-name="Path 355" d="M870.084-62.768a1.251,1.251,0,0,0,1.252-1.25,1.251,1.251,0,0,0-1.252-1.25,1.25,1.25,0,0,0-1.25,1.25A1.25,1.25,0,0,0,870.084-62.768Z" transform="translate(17.519 3.222)" fill="#fff"/>
      <path id="Path_356" data-name="Path 356" d="M864.081-62.768a1.25,1.25,0,0,0,1.25-1.25,1.25,1.25,0,0,0-1.25-1.25,1.251,1.251,0,0,0-1.251,1.25A1.251,1.251,0,0,0,864.081-62.768Z" transform="translate(15.183 3.222)" fill="#fff"/>
      <path id="Path_357" data-name="Path 357" d="M873.086-72.054a1.238,1.238,0,0,0,.7-.214,1.248,1.248,0,0,0,.552-1.036,1.3,1.3,0,0,0-.025-.246h-2.452a1.187,1.187,0,0,0-.025.246A1.25,1.25,0,0,0,873.086-72.054Z" transform="translate(18.687)" fill="#fff"/>
      <path id="Path_358" data-name="Path 358" d="M873.086-65.768a1.248,1.248,0,0,0,.7-.214,1.252,1.252,0,0,0,.552-1.038,1.248,1.248,0,0,0-.552-1.036,1.238,1.238,0,0,0-.7-.214,1.25,1.25,0,0,0-1.25,1.25A1.251,1.251,0,0,0,873.086-65.768Z" transform="translate(18.687 2.054)" fill="#fff"/>
      <path id="Path_359" data-name="Path 359" d="M875.559-8.854l1.243-2.153a1.244,1.244,0,0,0-.714-.226,1.252,1.252,0,0,0-1.252,1.25A1.248,1.248,0,0,0,875.559-8.854Z" transform="translate(19.855 24.246)" fill="#fff"/>
      <path id="Path_360" data-name="Path 360" d="M879.09-23.742a1.25,1.25,0,0,0,1.25-1.25,1.251,1.251,0,0,0-1.25-1.252,1.252,1.252,0,0,0-1.252,1.252A1.252,1.252,0,0,0,879.09-23.742Z" transform="translate(21.023 18.406)" fill="#fff"/>
      <path id="Path_361" data-name="Path 361" d="M879.09-17.738a1.251,1.251,0,0,0,1.25-1.252,1.25,1.25,0,0,0-1.25-1.25,1.252,1.252,0,0,0-1.252,1.25A1.252,1.252,0,0,0,879.09-17.738Z" transform="translate(21.023 20.742)" fill="#fff"/>
      <path id="Path_362" data-name="Path 362" d="M882.093-20.74a1.245,1.245,0,0,0,.946-.442l.229-.4a1.217,1.217,0,0,0,.075-.41,1.251,1.251,0,0,0-1.25-1.252,1.251,1.251,0,0,0-1.251,1.252A1.251,1.251,0,0,0,882.093-20.74Z" transform="translate(22.191 19.574)" fill="#fff"/>
      <path id="Path_363" data-name="Path 363" d="M876.089-20.74a1.25,1.25,0,0,0,1.25-1.25,1.251,1.251,0,0,0-1.25-1.252,1.252,1.252,0,0,0-1.252,1.252A1.252,1.252,0,0,0,876.089-20.74Z" transform="translate(19.855 19.574)" fill="#fff"/>
      <path id="Path_364" data-name="Path 364" d="M876.089-14.738a1.25,1.25,0,0,0,1.25-1.25,1.25,1.25,0,0,0-1.25-1.25,1.252,1.252,0,0,0-1.252,1.25A1.252,1.252,0,0,0,876.089-14.738Z" transform="translate(19.855 21.91)" fill="#fff"/>
      <path id="Path_365" data-name="Path 365" d="M884.745-24.992l.349-.6.343-.595a1.273,1.273,0,0,0-.343-.053,1.251,1.251,0,0,0-1.25,1.252,1.239,1.239,0,0,0,.383.9Z" transform="translate(23.359 18.406)" fill="#fff"/>
      <path id="Path_366" data-name="Path 366" d="M879.09-35.749A1.251,1.251,0,0,0,880.341-37a1.251,1.251,0,0,0-1.25-1.252A1.253,1.253,0,0,0,877.839-37,1.252,1.252,0,0,0,879.09-35.749Z" transform="translate(21.023 13.734)" fill="#fff"/>
      <path id="Path_367" data-name="Path 367" d="M879.09-29.746a1.25,1.25,0,0,0,1.25-1.25,1.251,1.251,0,0,0-1.25-1.252A1.252,1.252,0,0,0,877.839-31,1.252,1.252,0,0,0,879.09-29.746Z" transform="translate(21.023 16.07)" fill="#fff"/>
      <path id="Path_368" data-name="Path 368" d="M882.093-32.749a1.25,1.25,0,0,0,1.25-1.25,1.25,1.25,0,0,0-1.25-1.25A1.251,1.251,0,0,0,880.841-34,1.251,1.251,0,0,0,882.093-32.749Z" transform="translate(22.191 14.902)" fill="#fff"/>
      <path id="Path_369" data-name="Path 369" d="M876.089-32.749a1.25,1.25,0,0,0,1.25-1.25,1.25,1.25,0,0,0-1.25-1.25A1.252,1.252,0,0,0,874.837-34,1.252,1.252,0,0,0,876.089-32.749Z" transform="translate(19.855 14.902)" fill="#fff"/>
      <path id="Path_370" data-name="Path 370" d="M882.093-26.745A1.251,1.251,0,0,0,883.343-28a1.25,1.25,0,0,0-1.25-1.249A1.25,1.25,0,0,0,880.841-28,1.251,1.251,0,0,0,882.093-26.745Z" transform="translate(22.191 17.238)" fill="#fff"/>
      <path id="Path_371" data-name="Path 371" d="M876.089-26.745A1.251,1.251,0,0,0,877.339-28a1.25,1.25,0,0,0-1.25-1.249A1.251,1.251,0,0,0,874.837-28,1.252,1.252,0,0,0,876.089-26.745Z" transform="translate(19.855 17.238)" fill="#fff"/>
      <path id="Path_372" data-name="Path 372" d="M885.093-35.749a1.248,1.248,0,0,0,.7-.214A1.252,1.252,0,0,0,886.345-37a1.252,1.252,0,0,0-.552-1.038,1.248,1.248,0,0,0-.7-.214A1.252,1.252,0,0,0,883.843-37,1.251,1.251,0,0,0,885.093-35.749Z" transform="translate(23.359 13.734)" fill="#fff"/>
      <path id="Path_373" data-name="Path 373" d="M885.093-29.746a1.247,1.247,0,0,0,.7-.213A1.252,1.252,0,0,0,886.345-31a1.252,1.252,0,0,0-.552-1.038,1.248,1.248,0,0,0-.7-.214A1.251,1.251,0,0,0,883.843-31,1.251,1.251,0,0,0,885.093-29.746Z" transform="translate(23.359 16.07)" fill="#fff"/>
      <path id="Path_374" data-name="Path 374" d="M879.09-47.757a1.25,1.25,0,0,0,1.25-1.25,1.251,1.251,0,0,0-1.25-1.252,1.252,1.252,0,0,0-1.252,1.252A1.252,1.252,0,0,0,879.09-47.757Z" transform="translate(21.023 9.062)" fill="#fff"/>
      <path id="Path_375" data-name="Path 375" d="M879.09-41.753A1.251,1.251,0,0,0,880.341-43a1.25,1.25,0,0,0-1.25-1.25A1.252,1.252,0,0,0,877.839-43,1.252,1.252,0,0,0,879.09-41.753Z" transform="translate(21.023 11.398)" fill="#fff"/>
      <path id="Path_376" data-name="Path 376" d="M882.093-44.755a1.25,1.25,0,0,0,1.25-1.25,1.251,1.251,0,0,0-1.25-1.252,1.251,1.251,0,0,0-1.251,1.252A1.251,1.251,0,0,0,882.093-44.755Z" transform="translate(22.191 10.23)" fill="#fff"/>
      <path id="Path_377" data-name="Path 377" d="M876.089-44.755a1.25,1.25,0,0,0,1.25-1.25,1.251,1.251,0,0,0-1.25-1.252,1.252,1.252,0,0,0-1.252,1.252A1.252,1.252,0,0,0,876.089-44.755Z" transform="translate(19.855 10.23)" fill="#fff"/>
      <path id="Path_378" data-name="Path 378" d="M882.093-38.753a1.25,1.25,0,0,0,1.25-1.25,1.25,1.25,0,0,0-1.25-1.25A1.251,1.251,0,0,0,880.841-40,1.251,1.251,0,0,0,882.093-38.753Z" transform="translate(22.191 12.566)" fill="#fff"/>
      <path id="Path_379" data-name="Path 379" d="M876.089-38.753a1.25,1.25,0,0,0,1.25-1.25,1.25,1.25,0,0,0-1.25-1.25A1.252,1.252,0,0,0,874.837-40,1.252,1.252,0,0,0,876.089-38.753Z" transform="translate(19.855 12.566)" fill="#fff"/>
      <path id="Path_380" data-name="Path 380" d="M885.093-47.757a1.237,1.237,0,0,0,.7-.214,1.248,1.248,0,0,0,.552-1.036,1.25,1.25,0,0,0-.552-1.038,1.237,1.237,0,0,0-.7-.214,1.251,1.251,0,0,0-1.25,1.252A1.251,1.251,0,0,0,885.093-47.757Z" transform="translate(23.359 9.062)" fill="#fff"/>
      <path id="Path_381" data-name="Path 381" d="M885.093-41.753a1.248,1.248,0,0,0,.7-.214A1.252,1.252,0,0,0,886.345-43a1.248,1.248,0,0,0-.552-1.036,1.237,1.237,0,0,0-.7-.214,1.251,1.251,0,0,0-1.25,1.25A1.251,1.251,0,0,0,885.093-41.753Z" transform="translate(23.359 11.398)" fill="#fff"/>
      <path id="Path_382" data-name="Path 382" d="M879.09-59.764a1.251,1.251,0,0,0,1.25-1.252,1.251,1.251,0,0,0-1.25-1.252,1.253,1.253,0,0,0-1.252,1.252A1.252,1.252,0,0,0,879.09-59.764Z" transform="translate(21.023 4.39)" fill="#fff"/>
      <path id="Path_383" data-name="Path 383" d="M879.09-53.761a1.25,1.25,0,0,0,1.25-1.25,1.251,1.251,0,0,0-1.25-1.252,1.252,1.252,0,0,0-1.252,1.252A1.252,1.252,0,0,0,879.09-53.761Z" transform="translate(21.023 6.726)" fill="#fff"/>
      <path id="Path_384" data-name="Path 384" d="M882.093-56.764a1.25,1.25,0,0,0,1.25-1.25,1.25,1.25,0,0,0-1.25-1.25,1.251,1.251,0,0,0-1.251,1.25A1.251,1.251,0,0,0,882.093-56.764Z" transform="translate(22.191 5.558)" fill="#fff"/>
      <path id="Path_385" data-name="Path 385" d="M876.089-56.764a1.25,1.25,0,0,0,1.25-1.25,1.25,1.25,0,0,0-1.25-1.25,1.252,1.252,0,0,0-1.252,1.25A1.252,1.252,0,0,0,876.089-56.764Z" transform="translate(19.855 5.558)" fill="#fff"/>
      <path id="Path_386" data-name="Path 386" d="M882.093-50.76a1.251,1.251,0,0,0,1.25-1.252,1.25,1.25,0,0,0-1.25-1.249,1.25,1.25,0,0,0-1.251,1.249A1.251,1.251,0,0,0,882.093-50.76Z" transform="translate(22.191 7.895)" fill="#fff"/>
      <path id="Path_387" data-name="Path 387" d="M876.089-50.76a1.251,1.251,0,0,0,1.25-1.252,1.25,1.25,0,0,0-1.25-1.249,1.251,1.251,0,0,0-1.252,1.249A1.252,1.252,0,0,0,876.089-50.76Z" transform="translate(19.855 7.895)" fill="#fff"/>
      <path id="Path_388" data-name="Path 388" d="M885.093-59.764a1.248,1.248,0,0,0,.7-.214,1.252,1.252,0,0,0,.552-1.038,1.252,1.252,0,0,0-.552-1.038,1.248,1.248,0,0,0-.7-.214,1.252,1.252,0,0,0-1.25,1.252A1.251,1.251,0,0,0,885.093-59.764Z" transform="translate(23.359 4.39)" fill="#fff"/>
      <path id="Path_389" data-name="Path 389" d="M885.093-53.761a1.247,1.247,0,0,0,.7-.213,1.252,1.252,0,0,0,.552-1.038,1.252,1.252,0,0,0-.552-1.038,1.248,1.248,0,0,0-.7-.214,1.251,1.251,0,0,0-1.25,1.252A1.251,1.251,0,0,0,885.093-53.761Z" transform="translate(23.359 6.726)" fill="#fff"/>
      <path id="Path_390" data-name="Path 390" d="M879.09-72.054a1.25,1.25,0,0,0,1.25-1.25,1.3,1.3,0,0,0-.024-.246h-2.453a1.2,1.2,0,0,0-.025.246A1.252,1.252,0,0,0,879.09-72.054Z" transform="translate(21.023)" fill="#fff"/>
      <path id="Path_391" data-name="Path 391" d="M879.09-65.768a1.251,1.251,0,0,0,1.25-1.252,1.25,1.25,0,0,0-1.25-1.25,1.252,1.252,0,0,0-1.252,1.25A1.252,1.252,0,0,0,879.09-65.768Z" transform="translate(21.023 2.054)" fill="#fff"/>
      <path id="Path_392" data-name="Path 392" d="M882.093-68.77a1.25,1.25,0,0,0,1.25-1.25,1.251,1.251,0,0,0-1.25-1.252,1.251,1.251,0,0,0-1.251,1.252A1.251,1.251,0,0,0,882.093-68.77Z" transform="translate(22.191 0.886)" fill="#fff"/>
      <path id="Path_393" data-name="Path 393" d="M876.089-68.77a1.25,1.25,0,0,0,1.25-1.25,1.251,1.251,0,0,0-1.25-1.252,1.252,1.252,0,0,0-1.252,1.252A1.252,1.252,0,0,0,876.089-68.77Z" transform="translate(19.855 0.886)" fill="#fff"/>
      <path id="Path_394" data-name="Path 394" d="M882.093-62.768a1.25,1.25,0,0,0,1.25-1.25,1.25,1.25,0,0,0-1.25-1.25,1.251,1.251,0,0,0-1.251,1.25A1.251,1.251,0,0,0,882.093-62.768Z" transform="translate(22.191 3.222)" fill="#fff"/>
      <path id="Path_395" data-name="Path 395" d="M876.089-62.768a1.25,1.25,0,0,0,1.25-1.25,1.25,1.25,0,0,0-1.25-1.25,1.252,1.252,0,0,0-1.252,1.25A1.252,1.252,0,0,0,876.089-62.768Z" transform="translate(19.855 3.222)" fill="#fff"/>
      <path id="Path_396" data-name="Path 396" d="M885.093-72.054a1.237,1.237,0,0,0,.7-.214,1.248,1.248,0,0,0,.552-1.036,1.3,1.3,0,0,0-.025-.246h-2.452a1.187,1.187,0,0,0-.025.246A1.251,1.251,0,0,0,885.093-72.054Z" transform="translate(23.359)" fill="#fff"/>
      <path id="Path_397" data-name="Path 397" d="M885.093-65.768a1.248,1.248,0,0,0,.7-.214,1.252,1.252,0,0,0,.552-1.038,1.248,1.248,0,0,0-.552-1.036,1.237,1.237,0,0,0-.7-.214,1.251,1.251,0,0,0-1.25,1.25A1.251,1.251,0,0,0,885.093-65.768Z" transform="translate(23.359 2.054)" fill="#fff"/>
      <path id="Path_398" data-name="Path 398" d="M891.1-35.749a1.3,1.3,0,0,0,.233-.024L892.039-37l.235-.408a1.247,1.247,0,0,0-1.177-.843A1.253,1.253,0,0,0,889.846-37,1.252,1.252,0,0,0,891.1-35.749Z" transform="translate(25.695 13.734)" fill="#fff"/>
      <path id="Path_399" data-name="Path 399" d="M888.1-32.749A1.251,1.251,0,0,0,889.347-34a1.251,1.251,0,0,0-1.252-1.25A1.251,1.251,0,0,0,886.844-34,1.251,1.251,0,0,0,888.1-32.749Z" transform="translate(24.527 14.902)" fill="#fff"/>
      <path id="Path_400" data-name="Path 400" d="M891.1-47.757a1.252,1.252,0,0,0,1.252-1.25,1.252,1.252,0,0,0-1.252-1.252,1.252,1.252,0,0,0-1.252,1.252A1.251,1.251,0,0,0,891.1-47.757Z" transform="translate(25.695 9.062)" fill="#fff"/>
      <path id="Path_401" data-name="Path 401" d="M891.1-41.753A1.252,1.252,0,0,0,892.349-43a1.252,1.252,0,0,0-1.252-1.25A1.251,1.251,0,0,0,889.846-43,1.252,1.252,0,0,0,891.1-41.753Z" transform="translate(25.695 11.398)" fill="#fff"/>
      <path id="Path_402" data-name="Path 402" d="M894.1-44.755a1.25,1.25,0,0,0,1.25-1.25,1.251,1.251,0,0,0-1.25-1.252,1.252,1.252,0,0,0-1.252,1.252A1.251,1.251,0,0,0,894.1-44.755Z" transform="translate(26.863 10.23)" fill="#fff"/>
      <path id="Path_403" data-name="Path 403" d="M888.1-44.755a1.251,1.251,0,0,0,1.252-1.25,1.251,1.251,0,0,0-1.252-1.252,1.252,1.252,0,0,0-1.252,1.252A1.251,1.251,0,0,0,888.1-44.755Z" transform="translate(24.527 10.23)" fill="#fff"/>
      <path id="Path_404" data-name="Path 404" d="M893.994-41.245a1.247,1.247,0,0,0-1.146,1.239,1.237,1.237,0,0,0,.124.532Z" transform="translate(26.863 12.569)" fill="#fff"/>
      <path id="Path_405" data-name="Path 405" d="M888.1-38.753A1.251,1.251,0,0,0,889.347-40a1.251,1.251,0,0,0-1.252-1.25A1.251,1.251,0,0,0,886.844-40,1.251,1.251,0,0,0,888.1-38.753Z" transform="translate(24.527 12.566)" fill="#fff"/>
      <path id="Path_406" data-name="Path 406" d="M897.1-47.757a1.238,1.238,0,0,0,.7-.214,1.244,1.244,0,0,0,.551-1.036,1.247,1.247,0,0,0-.551-1.038,1.238,1.238,0,0,0-.7-.214,1.252,1.252,0,0,0-1.25,1.252A1.251,1.251,0,0,0,897.1-47.757Z" transform="translate(28.031 9.062)" fill="#fff"/>
      <path id="Path_407" data-name="Path 407" d="M891.1-59.764a1.252,1.252,0,0,0,1.252-1.252,1.253,1.253,0,0,0-1.252-1.252,1.253,1.253,0,0,0-1.252,1.252A1.252,1.252,0,0,0,891.1-59.764Z" transform="translate(25.695 4.39)" fill="#fff"/>
      <path id="Path_408" data-name="Path 408" d="M891.1-53.761a1.252,1.252,0,0,0,1.252-1.25,1.252,1.252,0,0,0-1.252-1.252,1.252,1.252,0,0,0-1.252,1.252A1.251,1.251,0,0,0,891.1-53.761Z" transform="translate(25.695 6.726)" fill="#fff"/>
      <path id="Path_409" data-name="Path 409" d="M894.1-56.764a1.25,1.25,0,0,0,1.25-1.25,1.25,1.25,0,0,0-1.25-1.25,1.251,1.251,0,0,0-1.252,1.25A1.251,1.251,0,0,0,894.1-56.764Z" transform="translate(26.863 5.558)" fill="#fff"/>
      <path id="Path_410" data-name="Path 410" d="M888.1-56.764a1.251,1.251,0,0,0,1.252-1.25,1.251,1.251,0,0,0-1.252-1.25,1.251,1.251,0,0,0-1.252,1.25A1.251,1.251,0,0,0,888.1-56.764Z" transform="translate(24.527 5.558)" fill="#fff"/>
      <path id="Path_411" data-name="Path 411" d="M894.1-50.76a1.251,1.251,0,0,0,1.25-1.252,1.25,1.25,0,0,0-1.25-1.249,1.251,1.251,0,0,0-1.252,1.249A1.252,1.252,0,0,0,894.1-50.76Z" transform="translate(26.863 7.895)" fill="#fff"/>
      <path id="Path_412" data-name="Path 412" d="M888.1-50.76a1.251,1.251,0,0,0,1.252-1.252A1.25,1.25,0,0,0,888.1-53.26a1.251,1.251,0,0,0-1.252,1.249A1.252,1.252,0,0,0,888.1-50.76Z" transform="translate(24.527 7.895)" fill="#fff"/>
      <path id="Path_413" data-name="Path 413" d="M897.1-59.764a1.248,1.248,0,0,0,.7-.214,1.249,1.249,0,0,0,.551-1.038,1.249,1.249,0,0,0-.551-1.038,1.248,1.248,0,0,0-.7-.214,1.252,1.252,0,0,0-1.25,1.252A1.252,1.252,0,0,0,897.1-59.764Z" transform="translate(28.031 4.39)" fill="#fff"/>
      <path id="Path_414" data-name="Path 414" d="M897.1-53.761a1.247,1.247,0,0,0,.7-.213,1.249,1.249,0,0,0,.551-1.038,1.249,1.249,0,0,0-.551-1.038,1.248,1.248,0,0,0-.7-.214,1.252,1.252,0,0,0-1.25,1.252A1.251,1.251,0,0,0,897.1-53.761Z" transform="translate(28.031 6.726)" fill="#fff"/>
      <path id="Path_415" data-name="Path 415" d="M891.1-72.054a1.252,1.252,0,0,0,1.252-1.25,1.3,1.3,0,0,0-.025-.246h-2.453a1.3,1.3,0,0,0-.025.246A1.251,1.251,0,0,0,891.1-72.054Z" transform="translate(25.695)" fill="#fff"/>
      <path id="Path_416" data-name="Path 416" d="M891.1-65.768a1.252,1.252,0,0,0,1.252-1.252,1.252,1.252,0,0,0-1.252-1.25,1.251,1.251,0,0,0-1.252,1.25A1.252,1.252,0,0,0,891.1-65.768Z" transform="translate(25.695 2.054)" fill="#fff"/>
      <path id="Path_417" data-name="Path 417" d="M894.1-68.77a1.25,1.25,0,0,0,1.25-1.25,1.251,1.251,0,0,0-1.25-1.252,1.252,1.252,0,0,0-1.252,1.252A1.251,1.251,0,0,0,894.1-68.77Z" transform="translate(26.863 0.886)" fill="#fff"/>
      <path id="Path_418" data-name="Path 418" d="M888.1-68.77a1.251,1.251,0,0,0,1.252-1.25,1.251,1.251,0,0,0-1.252-1.252,1.252,1.252,0,0,0-1.252,1.252A1.251,1.251,0,0,0,888.1-68.77Z" transform="translate(24.527 0.886)" fill="#fff"/>
      <path id="Path_419" data-name="Path 419" d="M894.1-62.768a1.25,1.25,0,0,0,1.25-1.25,1.25,1.25,0,0,0-1.25-1.25,1.251,1.251,0,0,0-1.252,1.25A1.251,1.251,0,0,0,894.1-62.768Z" transform="translate(26.863 3.222)" fill="#fff"/>
      <path id="Path_420" data-name="Path 420" d="M888.1-62.768a1.251,1.251,0,0,0,1.252-1.25,1.251,1.251,0,0,0-1.252-1.25,1.251,1.251,0,0,0-1.252,1.25A1.251,1.251,0,0,0,888.1-62.768Z" transform="translate(24.527 3.222)" fill="#fff"/>
      <path id="Path_421" data-name="Path 421" d="M897.1-72.054a1.238,1.238,0,0,0,.7-.214,1.244,1.244,0,0,0,.551-1.036,1.187,1.187,0,0,0-.025-.246h-2.452a1.3,1.3,0,0,0-.025.246A1.251,1.251,0,0,0,897.1-72.054Z" transform="translate(28.031)" fill="#fff"/>
      <path id="Path_422" data-name="Path 422" d="M897.1-65.768a1.248,1.248,0,0,0,.7-.214,1.249,1.249,0,0,0,.551-1.038,1.244,1.244,0,0,0-.551-1.036,1.238,1.238,0,0,0-.7-.214,1.251,1.251,0,0,0-1.25,1.25A1.252,1.252,0,0,0,897.1-65.768Z" transform="translate(28.031 2.054)" fill="#fff"/>
      <path id="Path_423" data-name="Path 423" d="M903.1-59.764a1.251,1.251,0,0,0,1.252-1.252,1.252,1.252,0,0,0-1.252-1.252,1.251,1.251,0,0,0-1.25,1.252A1.251,1.251,0,0,0,903.1-59.764Z" transform="translate(30.367 4.39)" fill="#fff"/>
      <path id="Path_424" data-name="Path 424" d="M901.86-55.158l.552-.954A1.244,1.244,0,0,0,901.86-55.158Z" transform="translate(30.369 6.785)" fill="#fff"/>
      <path id="Path_425" data-name="Path 425" d="M900.1-56.764a1.251,1.251,0,0,0,1.252-1.25,1.251,1.251,0,0,0-1.252-1.25,1.251,1.251,0,0,0-1.25,1.25A1.251,1.251,0,0,0,900.1-56.764Z" transform="translate(29.199 5.558)" fill="#fff"/>
      <path id="Path_426" data-name="Path 426" d="M899.865-50.783l1.179-2.043a1.243,1.243,0,0,0-.942-.433,1.251,1.251,0,0,0-1.25,1.249A1.252,1.252,0,0,0,899.865-50.783Z" transform="translate(29.199 7.895)" fill="#fff"/>
      <path id="Path_427" data-name="Path 427" d="M903.1-72.054a1.251,1.251,0,0,0,1.252-1.25,1.3,1.3,0,0,0-.025-.246h-2.453a1.3,1.3,0,0,0-.024.246A1.25,1.25,0,0,0,903.1-72.054Z" transform="translate(30.367)" fill="#fff"/>
      <path id="Path_428" data-name="Path 428" d="M903.1-65.768a1.251,1.251,0,0,0,1.252-1.252,1.251,1.251,0,0,0-1.252-1.25,1.25,1.25,0,0,0-1.25,1.25A1.251,1.251,0,0,0,903.1-65.768Z" transform="translate(30.367 2.054)" fill="#fff"/>
      <path id="Path_429" data-name="Path 429" d="M906.107-68.77a1.251,1.251,0,0,0,1.252-1.25,1.251,1.251,0,0,0-1.252-1.252,1.252,1.252,0,0,0-1.252,1.252A1.251,1.251,0,0,0,906.107-68.77Z" transform="translate(31.535 0.886)" fill="#fff"/>
      <path id="Path_430" data-name="Path 430" d="M900.1-68.77a1.251,1.251,0,0,0,1.252-1.25,1.251,1.251,0,0,0-1.252-1.252,1.251,1.251,0,0,0-1.25,1.252A1.251,1.251,0,0,0,900.1-68.77Z" transform="translate(29.199 0.886)" fill="#fff"/>
      <path id="Path_431" data-name="Path 431" d="M906.107-62.768a1.251,1.251,0,0,0,1.252-1.25,1.251,1.251,0,0,0-1.252-1.25,1.251,1.251,0,0,0-1.252,1.25A1.251,1.251,0,0,0,906.107-62.768Z" transform="translate(31.535 3.222)" fill="#fff"/>
      <path id="Path_432" data-name="Path 432" d="M900.1-62.768a1.251,1.251,0,0,0,1.252-1.25,1.251,1.251,0,0,0-1.252-1.25,1.251,1.251,0,0,0-1.25,1.25A1.251,1.251,0,0,0,900.1-62.768Z" transform="translate(29.199 3.222)" fill="#fff"/>
      <path id="Path_433" data-name="Path 433" d="M909.108-72.054a1.233,1.233,0,0,0,.7-.214,1.245,1.245,0,0,0,.552-1.036,1.3,1.3,0,0,0-.024-.246h-2.453a1.3,1.3,0,0,0-.024.246,1.246,1.246,0,0,0,.213.7A1.249,1.249,0,0,0,909.108-72.054Z" transform="translate(32.703)" fill="#fff"/>
      <path id="Path_434" data-name="Path 434" d="M908.483-65.942l.625-1.081.621-1.077a1.243,1.243,0,0,0-.621-.171,1.249,1.249,0,0,0-1.038.551,1.247,1.247,0,0,0-.213.7,1.248,1.248,0,0,0,.213.7A1.236,1.236,0,0,0,908.483-65.942Z" transform="translate(32.703 2.054)" fill="#fff"/>
    </g>
    <path id="Circle" d="M404.26,429.68A109.934,109.934,0,1,1,514.192,319.748,110.058,110.058,0,0,1,404.26,429.68Zm0-177.851a67.917,67.917,0,1,0,67.915,67.919A68,68,0,0,0,404.26,251.829Z" transform="translate(1065.651 19.163)" fill="none" stroke="#fff" stroke-miterlimit="10" stroke-width="1" opacity="0.6"/>
    <g id="Doots_2" data-name="Doots 2" transform="translate(1581.557 416.544) rotate(90)" opacity="0.5">
      <path id="Path_124" data-name="Path 124" d="M172.17,568.489a1.932,1.932,0,1,1-1.933-1.932A1.932,1.932,0,0,1,172.17,568.489Z" transform="translate(0)" fill="#949494"/>
      <path id="Path_125" data-name="Path 125" d="M189.309,568.489a1.932,1.932,0,1,1-1.932-1.932A1.932,1.932,0,0,1,189.309,568.489Z" transform="translate(-2.116)" fill="#949494"/>
      <path id="Path_126" data-name="Path 126" d="M206.448,568.489a1.932,1.932,0,1,1-1.932-1.932A1.932,1.932,0,0,1,206.448,568.489Z" transform="translate(-4.231)" fill="#949494"/>
      <path id="Path_127" data-name="Path 127" d="M223.587,568.489a1.932,1.932,0,1,1-1.932-1.932A1.932,1.932,0,0,1,223.587,568.489Z" transform="translate(-6.347)" fill="#949494"/>
      <path id="Path_128" data-name="Path 128" d="M240.726,568.489a1.932,1.932,0,1,1-1.932-1.932A1.932,1.932,0,0,1,240.726,568.489Z" transform="translate(-8.462)" fill="#949494"/>
      <path id="Path_129" data-name="Path 129" d="M257.866,568.489a1.932,1.932,0,1,1-1.933-1.932A1.933,1.933,0,0,1,257.866,568.489Z" transform="translate(-10.578)" fill="#949494"/>
      <path id="Path_130" data-name="Path 130" d="M275,568.489a1.932,1.932,0,1,1-1.933-1.932A1.932,1.932,0,0,1,275,568.489Z" transform="translate(-12.694)" fill="#949494"/>
      <path id="Path_131" data-name="Path 131" d="M292.144,568.489a1.932,1.932,0,1,1-1.932-1.932A1.932,1.932,0,0,1,292.144,568.489Z" transform="translate(-14.809)" fill="#949494"/>
      <path id="Path_132" data-name="Path 132" d="M172.17,584.469a1.932,1.932,0,1,1-1.933-1.933A1.932,1.932,0,0,1,172.17,584.469Z" transform="translate(0 -1.972)" fill="#949494"/>
      <circle id="Ellipse_9" data-name="Ellipse 9" cx="1.932" cy="1.932" r="1.932" transform="translate(183.329 580.564)" fill="#949494"/>
      <circle id="Ellipse_10" data-name="Ellipse 10" cx="1.932" cy="1.932" r="1.932" transform="translate(198.352 580.564)" fill="#949494"/>
      <circle id="Ellipse_11" data-name="Ellipse 11" cx="1.932" cy="1.932" r="1.932" transform="translate(213.376 580.564)" fill="#949494"/>
      <circle id="Ellipse_12" data-name="Ellipse 12" cx="1.932" cy="1.932" r="1.932" transform="translate(228.399 580.564)" fill="#949494"/>
      <path id="Path_133" data-name="Path 133" d="M257.866,584.469a1.932,1.932,0,1,1-1.933-1.933A1.932,1.932,0,0,1,257.866,584.469Z" transform="translate(-10.578 -1.972)" fill="#949494"/>
      <path id="Path_134" data-name="Path 134" d="M275,584.469a1.932,1.932,0,1,1-1.933-1.933A1.932,1.932,0,0,1,275,584.469Z" transform="translate(-12.694 -1.972)" fill="#949494"/>
      <circle id="Ellipse_13" data-name="Ellipse 13" cx="1.932" cy="1.932" r="1.932" transform="translate(273.47 580.564)" fill="#949494"/>
      <path id="Path_135" data-name="Path 135" d="M172.17,600.448a1.932,1.932,0,1,1-1.933-1.932A1.933,1.933,0,0,1,172.17,600.448Z" transform="translate(0 -3.945)" fill="#949494"/>
      <circle id="Ellipse_14" data-name="Ellipse 14" cx="1.932" cy="1.932" r="1.932" transform="translate(183.329 594.571)" fill="#949494"/>
      <circle id="Ellipse_15" data-name="Ellipse 15" cx="1.932" cy="1.932" r="1.932" transform="translate(198.352 594.571)" fill="#949494"/>
      <circle id="Ellipse_16" data-name="Ellipse 16" cx="1.932" cy="1.932" r="1.932" transform="translate(213.376 594.571)" fill="#949494"/>
      <circle id="Ellipse_17" data-name="Ellipse 17" cx="1.932" cy="1.932" r="1.932" transform="translate(228.399 594.571)" fill="#949494"/>
      <path id="Path_136" data-name="Path 136" d="M257.866,600.448a1.932,1.932,0,1,1-1.933-1.932A1.933,1.933,0,0,1,257.866,600.448Z" transform="translate(-10.578 -3.945)" fill="#949494"/>
      <path id="Path_137" data-name="Path 137" d="M275,600.448a1.932,1.932,0,1,1-1.933-1.932A1.933,1.933,0,0,1,275,600.448Z" transform="translate(-12.694 -3.945)" fill="#949494"/>
      <circle id="Ellipse_18" data-name="Ellipse 18" cx="1.932" cy="1.932" r="1.932" transform="translate(273.47 594.571)" fill="#949494"/>
      <path id="Path_138" data-name="Path 138" d="M172.17,616.428a1.932,1.932,0,1,1-1.933-1.932A1.932,1.932,0,0,1,172.17,616.428Z" transform="translate(0 -5.917)" fill="#949494"/>
      <circle id="Ellipse_19" data-name="Ellipse 19" cx="1.932" cy="1.932" r="1.932" transform="translate(183.329 608.578)" fill="#949494"/>
      <circle id="Ellipse_20" data-name="Ellipse 20" cx="1.932" cy="1.932" r="1.932" transform="translate(198.352 608.578)" fill="#949494"/>
      <circle id="Ellipse_21" data-name="Ellipse 21" cx="1.932" cy="1.932" r="1.932" transform="translate(213.376 608.578)" fill="#949494"/>
      <circle id="Ellipse_22" data-name="Ellipse 22" cx="1.932" cy="1.932" r="1.932" transform="translate(228.399 608.578)" fill="#949494"/>
      <path id="Path_139" data-name="Path 139" d="M257.866,616.428a1.932,1.932,0,1,1-1.933-1.932A1.932,1.932,0,0,1,257.866,616.428Z" transform="translate(-10.578 -5.917)" fill="#949494"/>
      <path id="Path_140" data-name="Path 140" d="M275,616.428a1.932,1.932,0,1,1-1.933-1.932A1.932,1.932,0,0,1,275,616.428Z" transform="translate(-12.694 -5.917)" fill="#949494"/>
      <circle id="Ellipse_23" data-name="Ellipse 23" cx="1.932" cy="1.932" r="1.932" transform="translate(273.47 608.578)" fill="#949494"/>
      <path id="Path_141" data-name="Path 141" d="M172.17,632.408a1.932,1.932,0,1,1-1.933-1.933A1.932,1.932,0,0,1,172.17,632.408Z" transform="translate(0 -7.89)" fill="#949494"/>
      <path id="Path_142" data-name="Path 142" d="M189.309,632.408a1.932,1.932,0,1,1-1.932-1.933A1.932,1.932,0,0,1,189.309,632.408Z" transform="translate(-2.116 -7.89)" fill="#949494"/>
      <path id="Path_143" data-name="Path 143" d="M206.448,632.408a1.932,1.932,0,1,1-1.932-1.933A1.932,1.932,0,0,1,206.448,632.408Z" transform="translate(-4.231 -7.89)" fill="#949494"/>
      <path id="Path_144" data-name="Path 144" d="M223.587,632.408a1.932,1.932,0,1,1-1.932-1.933A1.932,1.932,0,0,1,223.587,632.408Z" transform="translate(-6.347 -7.89)" fill="#949494"/>
      <path id="Path_145" data-name="Path 145" d="M240.726,632.408a1.932,1.932,0,1,1-1.932-1.933A1.932,1.932,0,0,1,240.726,632.408Z" transform="translate(-8.462 -7.89)" fill="#949494"/>
      <path id="Path_146" data-name="Path 146" d="M257.866,632.408a1.932,1.932,0,1,1-1.933-1.933A1.932,1.932,0,0,1,257.866,632.408Z" transform="translate(-10.578 -7.89)" fill="#949494"/>
      <path id="Path_147" data-name="Path 147" d="M275,632.408a1.932,1.932,0,1,1-1.933-1.933A1.932,1.932,0,0,1,275,632.408Z" transform="translate(-12.694 -7.89)" fill="#949494"/>
      <path id="Path_148" data-name="Path 148" d="M292.144,632.408a1.932,1.932,0,1,1-1.932-1.933A1.932,1.932,0,0,1,292.144,632.408Z" transform="translate(-14.809 -7.89)" fill="#949494"/>
      <path id="Path_149" data-name="Path 149" d="M172.17,648.387a1.932,1.932,0,1,1-1.933-1.932A1.933,1.933,0,0,1,172.17,648.387Z" transform="translate(0 -9.862)" fill="#949494"/>
      <circle id="Ellipse_24" data-name="Ellipse 24" cx="1.932" cy="1.932" r="1.932" transform="translate(183.329 636.593)" fill="#949494"/>
      <circle id="Ellipse_25" data-name="Ellipse 25" cx="1.932" cy="1.932" r="1.932" transform="translate(198.352 636.593)" fill="#949494"/>
      <circle id="Ellipse_26" data-name="Ellipse 26" cx="1.932" cy="1.932" r="1.932" transform="translate(213.376 636.593)" fill="#949494"/>
      <circle id="Ellipse_27" data-name="Ellipse 27" cx="1.932" cy="1.932" r="1.932" transform="translate(228.399 636.593)" fill="#949494"/>
      <path id="Path_150" data-name="Path 150" d="M257.866,648.387a1.932,1.932,0,1,1-1.933-1.932A1.933,1.933,0,0,1,257.866,648.387Z" transform="translate(-10.578 -9.862)" fill="#949494"/>
      <path id="Path_151" data-name="Path 151" d="M275,648.387a1.932,1.932,0,1,1-1.933-1.932A1.933,1.933,0,0,1,275,648.387Z" transform="translate(-12.694 -9.862)" fill="#949494"/>
      <circle id="Ellipse_28" data-name="Ellipse 28" cx="1.932" cy="1.932" r="1.932" transform="translate(273.47 636.593)" fill="#949494"/>
      <path id="Path_152" data-name="Path 152" d="M172.17,664.367a1.932,1.932,0,1,1-1.933-1.932A1.932,1.932,0,0,1,172.17,664.367Z" transform="translate(0 -11.835)" fill="#949494"/>
      <circle id="Ellipse_29" data-name="Ellipse 29" cx="1.932" cy="1.932" r="1.932" transform="translate(183.329 650.6)" fill="#949494"/>
      <circle id="Ellipse_30" data-name="Ellipse 30" cx="1.932" cy="1.932" r="1.932" transform="translate(198.352 650.6)" fill="#949494"/>
      <circle id="Ellipse_31" data-name="Ellipse 31" cx="1.932" cy="1.932" r="1.932" transform="translate(213.376 650.6)" fill="#949494"/>
      <circle id="Ellipse_32" data-name="Ellipse 32" cx="1.932" cy="1.932" r="1.932" transform="translate(228.399 650.6)" fill="#949494"/>
      <path id="Path_153" data-name="Path 153" d="M257.866,664.367a1.932,1.932,0,1,1-1.933-1.932A1.932,1.932,0,0,1,257.866,664.367Z" transform="translate(-10.578 -11.835)" fill="#949494"/>
      <path id="Path_154" data-name="Path 154" d="M275,664.367a1.932,1.932,0,1,1-1.933-1.932A1.932,1.932,0,0,1,275,664.367Z" transform="translate(-12.694 -11.835)" fill="#949494"/>
      <circle id="Ellipse_33" data-name="Ellipse 33" cx="1.932" cy="1.932" r="1.932" transform="translate(273.47 650.6)" fill="#949494"/>
      <path id="Path_155" data-name="Path 155" d="M172.17,680.346a1.932,1.932,0,1,1-1.933-1.932A1.933,1.933,0,0,1,172.17,680.346Z" transform="translate(0 -13.807)" fill="#949494"/>
      <path id="Path_156" data-name="Path 156" d="M189.309,680.346a1.932,1.932,0,1,1-1.932-1.932A1.932,1.932,0,0,1,189.309,680.346Z" transform="translate(-2.116 -13.807)" fill="#949494"/>
      <path id="Path_157" data-name="Path 157" d="M206.448,680.346a1.932,1.932,0,1,1-1.932-1.932A1.932,1.932,0,0,1,206.448,680.346Z" transform="translate(-4.231 -13.807)" fill="#949494"/>
      <path id="Path_158" data-name="Path 158" d="M223.587,680.346a1.932,1.932,0,1,1-1.932-1.932A1.932,1.932,0,0,1,223.587,680.346Z" transform="translate(-6.347 -13.807)" fill="#949494"/>
      <path id="Path_159" data-name="Path 159" d="M240.726,680.346a1.932,1.932,0,1,1-1.932-1.932A1.932,1.932,0,0,1,240.726,680.346Z" transform="translate(-8.462 -13.807)" fill="#949494"/>
      <path id="Path_160" data-name="Path 160" d="M257.866,680.346a1.932,1.932,0,1,1-1.933-1.932A1.933,1.933,0,0,1,257.866,680.346Z" transform="translate(-10.578 -13.807)" fill="#949494"/>
      <path id="Path_161" data-name="Path 161" d="M275,680.346a1.932,1.932,0,1,1-1.933-1.932A1.933,1.933,0,0,1,275,680.346Z" transform="translate(-12.694 -13.807)" fill="#949494"/>
      <path id="Path_162" data-name="Path 162" d="M292.144,680.346a1.932,1.932,0,1,1-1.932-1.932A1.932,1.932,0,0,1,292.144,680.346Z" transform="translate(-14.809 -13.807)" fill="#949494"/>
      <path id="Path_163" data-name="Path 163" d="M172.17,696.326a1.932,1.932,0,1,1-1.933-1.932A1.932,1.932,0,0,1,172.17,696.326Z" transform="translate(0 -15.78)" fill="#949494"/>
      <circle id="Ellipse_34" data-name="Ellipse 34" cx="1.932" cy="1.932" r="1.932" transform="translate(183.329 678.614)" fill="#949494"/>
      <circle id="Ellipse_35" data-name="Ellipse 35" cx="1.932" cy="1.932" r="1.932" transform="translate(198.352 678.614)" fill="#949494"/>
      <circle id="Ellipse_36" data-name="Ellipse 36" cx="1.932" cy="1.932" r="1.932" transform="translate(213.376 678.614)" fill="#949494"/>
      <circle id="Ellipse_37" data-name="Ellipse 37" cx="1.932" cy="1.932" r="1.932" transform="translate(228.399 678.614)" fill="#949494"/>
      <path id="Path_164" data-name="Path 164" d="M257.866,696.326a1.932,1.932,0,1,1-1.933-1.932A1.932,1.932,0,0,1,257.866,696.326Z" transform="translate(-10.578 -15.78)" fill="#949494"/>
      <path id="Path_165" data-name="Path 165" d="M275,696.326a1.932,1.932,0,1,1-1.933-1.932A1.932,1.932,0,0,1,275,696.326Z" transform="translate(-12.694 -15.78)" fill="#949494"/>
      <circle id="Ellipse_38" data-name="Ellipse 38" cx="1.932" cy="1.932" r="1.932" transform="translate(273.47 678.614)" fill="#949494"/>
      <path id="Path_166" data-name="Path 166" d="M172.17,712.306a1.932,1.932,0,1,1-1.933-1.933A1.932,1.932,0,0,1,172.17,712.306Z" transform="translate(0 -17.752)" fill="#949494"/>
      <circle id="Ellipse_39" data-name="Ellipse 39" cx="1.932" cy="1.932" r="1.932" transform="translate(183.329 692.621)" fill="#949494"/>
      <circle id="Ellipse_40" data-name="Ellipse 40" cx="1.932" cy="1.932" r="1.932" transform="translate(198.352 692.621)" fill="#949494"/>
      <circle id="Ellipse_41" data-name="Ellipse 41" cx="1.932" cy="1.932" r="1.932" transform="translate(213.376 692.621)" fill="#949494"/>
      <circle id="Ellipse_42" data-name="Ellipse 42" cx="1.932" cy="1.932" r="1.932" transform="translate(228.399 692.621)" fill="#949494"/>
      <path id="Path_167" data-name="Path 167" d="M257.866,712.306a1.932,1.932,0,1,1-1.933-1.933A1.932,1.932,0,0,1,257.866,712.306Z" transform="translate(-10.578 -17.752)" fill="#949494"/>
      <path id="Path_168" data-name="Path 168" d="M275,712.306a1.932,1.932,0,1,1-1.933-1.933A1.932,1.932,0,0,1,275,712.306Z" transform="translate(-12.694 -17.752)" fill="#949494"/>
      <circle id="Ellipse_43" data-name="Ellipse 43" cx="1.932" cy="1.932" r="1.932" transform="translate(273.47 692.621)" fill="#949494"/>
      <path id="Path_169" data-name="Path 169" d="M172.17,728.285a1.932,1.932,0,1,1-1.933-1.932A1.933,1.933,0,0,1,172.17,728.285Z" transform="translate(0 -19.725)" fill="#949494"/>
      <circle id="Ellipse_44" data-name="Ellipse 44" cx="1.932" cy="1.932" r="1.932" transform="translate(183.329 706.628)" fill="#949494"/>
      <circle id="Ellipse_45" data-name="Ellipse 45" cx="1.932" cy="1.932" r="1.932" transform="translate(198.352 706.628)" fill="#949494"/>
      <circle id="Ellipse_46" data-name="Ellipse 46" cx="1.932" cy="1.932" r="1.932" transform="translate(213.376 706.628)" fill="#949494"/>
      <circle id="Ellipse_47" data-name="Ellipse 47" cx="1.932" cy="1.932" r="1.932" transform="translate(228.399 706.628)" fill="#949494"/>
      <path id="Path_170" data-name="Path 170" d="M257.866,728.285a1.932,1.932,0,1,1-1.933-1.932A1.933,1.933,0,0,1,257.866,728.285Z" transform="translate(-10.578 -19.725)" fill="#949494"/>
      <path id="Path_171" data-name="Path 171" d="M275,728.285a1.932,1.932,0,1,1-1.933-1.932A1.933,1.933,0,0,1,275,728.285Z" transform="translate(-12.694 -19.725)" fill="#949494"/>
      <circle id="Ellipse_48" data-name="Ellipse 48" cx="1.932" cy="1.932" r="1.932" transform="translate(273.47 706.628)" fill="#949494"/>
      <path id="Path_172" data-name="Path 172" d="M172.17,744.265a1.932,1.932,0,1,1-1.933-1.932A1.932,1.932,0,0,1,172.17,744.265Z" transform="translate(0 -21.697)" fill="#949494"/>
      <path id="Path_173" data-name="Path 173" d="M189.309,744.265a1.932,1.932,0,1,1-1.932-1.932A1.932,1.932,0,0,1,189.309,744.265Z" transform="translate(-2.116 -21.697)" fill="#949494"/>
      <path id="Path_174" data-name="Path 174" d="M206.448,744.265a1.932,1.932,0,1,1-1.932-1.932A1.932,1.932,0,0,1,206.448,744.265Z" transform="translate(-4.231 -21.697)" fill="#949494"/>
      <path id="Path_175" data-name="Path 175" d="M223.587,744.265a1.932,1.932,0,1,1-1.932-1.932A1.932,1.932,0,0,1,223.587,744.265Z" transform="translate(-6.347 -21.697)" fill="#949494"/>
      <path id="Path_176" data-name="Path 176" d="M240.726,744.265a1.932,1.932,0,1,1-1.932-1.932A1.932,1.932,0,0,1,240.726,744.265Z" transform="translate(-8.462 -21.697)" fill="#949494"/>
      <path id="Path_177" data-name="Path 177" d="M257.866,744.265a1.932,1.932,0,1,1-1.933-1.932A1.932,1.932,0,0,1,257.866,744.265Z" transform="translate(-10.578 -21.697)" fill="#949494"/>
      <path id="Path_178" data-name="Path 178" d="M275,744.265a1.932,1.932,0,1,1-1.933-1.932A1.932,1.932,0,0,1,275,744.265Z" transform="translate(-12.694 -21.697)" fill="#949494"/>
      <path id="Path_179" data-name="Path 179" d="M292.144,744.265a1.932,1.932,0,1,1-1.932-1.932A1.932,1.932,0,0,1,292.144,744.265Z" transform="translate(-14.809 -21.697)" fill="#949494"/>
      <path id="Path_180" data-name="Path 180" d="M172.17,760.245a1.932,1.932,0,1,1-1.933-1.933A1.932,1.932,0,0,1,172.17,760.245Z" transform="translate(0 -23.67)" fill="#949494"/>
      <circle id="Ellipse_49" data-name="Ellipse 49" cx="1.932" cy="1.932" r="1.932" transform="translate(183.329 734.643)" fill="#949494"/>
      <circle id="Ellipse_50" data-name="Ellipse 50" cx="1.932" cy="1.932" r="1.932" transform="translate(198.352 734.643)" fill="#949494"/>
      <circle id="Ellipse_51" data-name="Ellipse 51" cx="1.932" cy="1.932" r="1.932" transform="translate(213.376 734.643)" fill="#949494"/>
      <circle id="Ellipse_52" data-name="Ellipse 52" cx="1.932" cy="1.932" r="1.932" transform="translate(228.399 734.643)" fill="#949494"/>
      <path id="Path_181" data-name="Path 181" d="M257.866,760.245a1.932,1.932,0,1,1-1.933-1.933A1.932,1.932,0,0,1,257.866,760.245Z" transform="translate(-10.578 -23.67)" fill="#949494"/>
      <path id="Path_182" data-name="Path 182" d="M275,760.245a1.932,1.932,0,1,1-1.933-1.933A1.932,1.932,0,0,1,275,760.245Z" transform="translate(-12.694 -23.67)" fill="#949494"/>
      <circle id="Ellipse_53" data-name="Ellipse 53" cx="1.932" cy="1.932" r="1.932" transform="translate(273.47 734.643)" fill="#949494"/>
      <path id="Path_183" data-name="Path 183" d="M172.17,776.224a1.932,1.932,0,1,1-1.933-1.932A1.933,1.933,0,0,1,172.17,776.224Z" transform="translate(0 -25.642)" fill="#949494"/>
      <circle id="Ellipse_54" data-name="Ellipse 54" cx="1.932" cy="1.932" r="1.932" transform="translate(183.329 748.65)" fill="#949494"/>
      <circle id="Ellipse_55" data-name="Ellipse 55" cx="1.932" cy="1.932" r="1.932" transform="translate(198.352 748.65)" fill="#949494"/>
      <circle id="Ellipse_56" data-name="Ellipse 56" cx="1.932" cy="1.932" r="1.932" transform="translate(213.376 748.65)" fill="#949494"/>
      <circle id="Ellipse_57" data-name="Ellipse 57" cx="1.932" cy="1.932" r="1.932" transform="translate(228.399 748.65)" fill="#949494"/>
      <path id="Path_184" data-name="Path 184" d="M257.866,776.224a1.932,1.932,0,1,1-1.933-1.932A1.933,1.933,0,0,1,257.866,776.224Z" transform="translate(-10.578 -25.642)" fill="#949494"/>
      <path id="Path_185" data-name="Path 185" d="M275,776.224a1.932,1.932,0,1,1-1.933-1.932A1.933,1.933,0,0,1,275,776.224Z" transform="translate(-12.694 -25.642)" fill="#949494"/>
      <circle id="Ellipse_58" data-name="Ellipse 58" cx="1.932" cy="1.932" r="1.932" transform="translate(273.47 748.65)" fill="#949494"/>
      <path id="Path_186" data-name="Path 186" d="M172.17,792.2a1.932,1.932,0,1,1-1.933-1.932A1.932,1.932,0,0,1,172.17,792.2Z" transform="translate(0 -27.615)" fill="#949494"/>
      <circle id="Ellipse_59" data-name="Ellipse 59" cx="1.932" cy="1.932" r="1.932" transform="translate(183.329 762.657)" fill="#949494"/>
      <circle id="Ellipse_60" data-name="Ellipse 60" cx="1.932" cy="1.932" r="1.932" transform="translate(198.352 762.657)" fill="#949494"/>
      <circle id="Ellipse_61" data-name="Ellipse 61" cx="1.932" cy="1.932" r="1.932" transform="translate(213.376 762.657)" fill="#949494"/>
      <circle id="Ellipse_62" data-name="Ellipse 62" cx="1.932" cy="1.932" r="1.932" transform="translate(228.399 762.657)" fill="#949494"/>
      <path id="Path_187" data-name="Path 187" d="M257.866,792.2a1.932,1.932,0,1,1-1.933-1.932A1.932,1.932,0,0,1,257.866,792.2Z" transform="translate(-10.578 -27.615)" fill="#949494"/>
      <path id="Path_188" data-name="Path 188" d="M275,792.2a1.932,1.932,0,1,1-1.933-1.932A1.932,1.932,0,0,1,275,792.2Z" transform="translate(-12.694 -27.615)" fill="#949494"/>
      <circle id="Ellipse_63" data-name="Ellipse 63" cx="1.932" cy="1.932" r="1.932" transform="translate(273.47 762.657)" fill="#949494"/>
      <path id="Path_189" data-name="Path 189" d="M172.17,808.184a1.932,1.932,0,1,1-1.933-1.933A1.932,1.932,0,0,1,172.17,808.184Z" transform="translate(0 -29.587)" fill="#949494"/>
      <path id="Path_190" data-name="Path 190" d="M189.309,808.184a1.932,1.932,0,1,1-1.932-1.933A1.932,1.932,0,0,1,189.309,808.184Z" transform="translate(-2.116 -29.587)" fill="#949494"/>
      <path id="Path_191" data-name="Path 191" d="M206.448,808.184a1.932,1.932,0,1,1-1.932-1.933A1.932,1.932,0,0,1,206.448,808.184Z" transform="translate(-4.231 -29.587)" fill="#949494"/>
      <path id="Path_192" data-name="Path 192" d="M223.587,808.184a1.932,1.932,0,1,1-1.932-1.933A1.932,1.932,0,0,1,223.587,808.184Z" transform="translate(-6.347 -29.587)" fill="#949494"/>
      <path id="Path_193" data-name="Path 193" d="M240.726,808.184a1.932,1.932,0,1,1-1.932-1.933A1.932,1.932,0,0,1,240.726,808.184Z" transform="translate(-8.462 -29.587)" fill="#949494"/>
      <path id="Path_194" data-name="Path 194" d="M257.866,808.184a1.932,1.932,0,1,1-1.933-1.933A1.932,1.932,0,0,1,257.866,808.184Z" transform="translate(-10.578 -29.587)" fill="#949494"/>
      <path id="Path_195" data-name="Path 195" d="M275,808.184a1.932,1.932,0,1,1-1.933-1.933A1.932,1.932,0,0,1,275,808.184Z" transform="translate(-12.694 -29.587)" fill="#949494"/>
      <path id="Path_196" data-name="Path 196" d="M292.144,808.184a1.932,1.932,0,1,1-1.932-1.933A1.932,1.932,0,0,1,292.144,808.184Z" transform="translate(-14.809 -29.587)" fill="#949494"/>
      <path id="Path_197" data-name="Path 197" d="M172.17,824.163a1.932,1.932,0,1,1-1.933-1.932A1.932,1.932,0,0,1,172.17,824.163Z" transform="translate(0 -31.56)" fill="#949494"/>
      <circle id="Ellipse_64" data-name="Ellipse 64" cx="1.932" cy="1.932" r="1.932" transform="translate(183.329 790.671)" fill="#949494"/>
      <circle id="Ellipse_65" data-name="Ellipse 65" cx="1.932" cy="1.932" r="1.932" transform="translate(198.352 790.671)" fill="#949494"/>
      <circle id="Ellipse_66" data-name="Ellipse 66" cx="1.932" cy="1.932" r="1.932" transform="translate(213.376 790.671)" fill="#949494"/>
      <circle id="Ellipse_67" data-name="Ellipse 67" cx="1.932" cy="1.932" r="1.932" transform="translate(228.399 790.671)" fill="#949494"/>
      <path id="Path_198" data-name="Path 198" d="M257.866,824.163a1.932,1.932,0,1,1-1.933-1.932A1.932,1.932,0,0,1,257.866,824.163Z" transform="translate(-10.578 -31.56)" fill="#949494"/>
      <path id="Path_199" data-name="Path 199" d="M275,824.163a1.932,1.932,0,1,1-1.933-1.932A1.932,1.932,0,0,1,275,824.163Z" transform="translate(-12.694 -31.56)" fill="#949494"/>
      <circle id="Ellipse_68" data-name="Ellipse 68" cx="1.932" cy="1.932" r="1.932" transform="translate(273.47 790.671)" fill="#949494"/>
      <path id="Path_200" data-name="Path 200" d="M172.17,840.143a1.932,1.932,0,1,1-1.933-1.933A1.933,1.933,0,0,1,172.17,840.143Z" transform="translate(0 -33.532)" fill="#949494"/>
      <circle id="Ellipse_69" data-name="Ellipse 69" cx="1.932" cy="1.932" r="1.932" transform="translate(183.329 804.678)" fill="#949494"/>
      <circle id="Ellipse_70" data-name="Ellipse 70" cx="1.932" cy="1.932" r="1.932" transform="translate(198.352 804.678)" fill="#949494"/>
      <circle id="Ellipse_71" data-name="Ellipse 71" cx="1.932" cy="1.932" r="1.932" transform="translate(213.376 804.678)" fill="#949494"/>
      <circle id="Ellipse_72" data-name="Ellipse 72" cx="1.932" cy="1.932" r="1.932" transform="translate(228.399 804.678)" fill="#949494"/>
      <path id="Path_201" data-name="Path 201" d="M257.866,840.143a1.932,1.932,0,1,1-1.933-1.933A1.933,1.933,0,0,1,257.866,840.143Z" transform="translate(-10.578 -33.532)" fill="#949494"/>
      <path id="Path_202" data-name="Path 202" d="M275,840.143a1.932,1.932,0,1,1-1.933-1.933A1.933,1.933,0,0,1,275,840.143Z" transform="translate(-12.694 -33.532)" fill="#949494"/>
      <circle id="Ellipse_73" data-name="Ellipse 73" cx="1.932" cy="1.932" r="1.932" transform="translate(273.47 804.678)" fill="#949494"/>
      <path id="Path_203" data-name="Path 203" d="M172.17,856.122a1.932,1.932,0,1,1-1.933-1.932A1.933,1.933,0,0,1,172.17,856.122Z" transform="translate(0 -35.505)" fill="#949494"/>
      <path id="Path_204" data-name="Path 204" d="M189.309,856.122a1.932,1.932,0,1,1-1.932-1.932A1.932,1.932,0,0,1,189.309,856.122Z" transform="translate(-2.116 -35.505)" fill="#949494"/>
      <path id="Path_205" data-name="Path 205" d="M206.448,856.122a1.932,1.932,0,1,1-1.932-1.932A1.932,1.932,0,0,1,206.448,856.122Z" transform="translate(-4.231 -35.505)" fill="#949494"/>
      <path id="Path_206" data-name="Path 206" d="M223.587,856.122a1.932,1.932,0,1,1-1.932-1.932A1.932,1.932,0,0,1,223.587,856.122Z" transform="translate(-6.347 -35.505)" fill="#949494"/>
      <path id="Path_207" data-name="Path 207" d="M240.726,856.122a1.932,1.932,0,1,1-1.932-1.932A1.932,1.932,0,0,1,240.726,856.122Z" transform="translate(-8.462 -35.505)" fill="#949494"/>
      <path id="Path_208" data-name="Path 208" d="M257.866,856.122a1.932,1.932,0,1,1-1.933-1.932A1.933,1.933,0,0,1,257.866,856.122Z" transform="translate(-10.578 -35.505)" fill="#949494"/>
      <path id="Path_209" data-name="Path 209" d="M275,856.122a1.932,1.932,0,1,1-1.933-1.932A1.933,1.933,0,0,1,275,856.122Z" transform="translate(-12.694 -35.505)" fill="#949494"/>
      <path id="Path_210" data-name="Path 210" d="M292.144,856.122a1.932,1.932,0,1,1-1.932-1.932A1.932,1.932,0,0,1,292.144,856.122Z" transform="translate(-14.809 -35.505)" fill="#949494"/>
      <path id="Path_211" data-name="Path 211" d="M172.17,872.1a1.932,1.932,0,1,1-1.933-1.932A1.932,1.932,0,0,1,172.17,872.1Z" transform="translate(0 -37.477)" fill="#949494"/>
      <circle id="Ellipse_74" data-name="Ellipse 74" cx="1.932" cy="1.932" r="1.932" transform="translate(183.329 832.693)" fill="#949494"/>
      <circle id="Ellipse_75" data-name="Ellipse 75" cx="1.932" cy="1.932" r="1.932" transform="translate(198.352 832.693)" fill="#949494"/>
      <circle id="Ellipse_76" data-name="Ellipse 76" cx="1.932" cy="1.932" r="1.932" transform="translate(213.376 832.693)" fill="#949494"/>
      <circle id="Ellipse_77" data-name="Ellipse 77" cx="1.932" cy="1.932" r="1.932" transform="translate(228.399 832.693)" fill="#949494"/>
      <path id="Path_212" data-name="Path 212" d="M257.866,872.1a1.932,1.932,0,1,1-1.933-1.932A1.932,1.932,0,0,1,257.866,872.1Z" transform="translate(-10.578 -37.477)" fill="#949494"/>
      <path id="Path_213" data-name="Path 213" d="M275,872.1a1.932,1.932,0,1,1-1.933-1.932A1.932,1.932,0,0,1,275,872.1Z" transform="translate(-12.694 -37.477)" fill="#949494"/>
      <circle id="Ellipse_78" data-name="Ellipse 78" cx="1.932" cy="1.932" r="1.932" transform="translate(273.47 832.693)" fill="#949494"/>
    </g>
    <path id="Dots_1" data-name="Dots 1" d="M-792.005-706.424a.9.9,0,0,1,.9-.9.9.9,0,0,1,.9.9.9.9,0,0,1-.9.9A.9.9,0,0,1-792.005-706.424Zm-10,0a.9.9,0,0,1,.9-.9.9.9,0,0,1,.9.9.9.9,0,0,1-.9.9A.9.9,0,0,1-802-706.424Zm-10,0a.9.9,0,0,1,.9-.9.9.9,0,0,1,.9.9.9.9,0,0,1-.9.9A.9.9,0,0,1-812-706.424Zm-10,0a.9.9,0,0,1,.9-.9.9.9,0,0,1,.9.9.9.9,0,0,1-.9.9A.9.9,0,0,1-822-706.424Zm-10,0a.9.9,0,0,1,.9-.9.9.9,0,0,1,.9.9.9.9,0,0,1-.9.9A.9.9,0,0,1-832-706.424Zm-10,0a.9.9,0,0,1,.9-.9.9.9,0,0,1,.9.9.9.9,0,0,1-.9.9A.9.9,0,0,1-842-706.424Zm-8.006,0a.9.9,0,0,1,.9-.9.9.9,0,0,1,.9.9.9.9,0,0,1-.9.9A.9.9,0,0,1-850.006-706.424Zm-10,0a.9.9,0,0,1,.9-.9.9.9,0,0,1,.9.9.9.9,0,0,1-.9.9A.9.9,0,0,1-860-706.424Zm-10,0a.9.9,0,0,1,.9-.9.9.9,0,0,1,.9.9.9.9,0,0,1-.9.9A.9.9,0,0,1-870-706.424Zm-10,0a.9.9,0,0,1,.9-.9.9.9,0,0,1,.9.9.9.9,0,0,1-.9.9A.9.9,0,0,1-880-706.424Zm-10,0a.9.9,0,0,1,.9-.9.9.9,0,0,1,.9.9.9.9,0,0,1-.9.9A.9.9,0,0,1-890-706.424Zm-10,0a.9.9,0,0,1,.9-.9.9.9,0,0,1,.9.9.9.9,0,0,1-.9.9A.9.9,0,0,1-900-706.424Zm107.995-10.535a.9.9,0,0,1,.9-.9.9.9,0,0,1,.9.9.9.9,0,0,1-.9.9A.9.9,0,0,1-792.005-716.959Zm-10,0a.9.9,0,0,1,.9-.9.9.9,0,0,1,.9.9.9.9,0,0,1-.9.9A.9.9,0,0,1-802-716.959Zm-10,0a.9.9,0,0,1,.9-.9.9.9,0,0,1,.9.9.9.9,0,0,1-.9.9A.9.9,0,0,1-812-716.959Zm-10,0a.9.9,0,0,1,.9-.9.9.9,0,0,1,.9.9.9.9,0,0,1-.9.9A.9.9,0,0,1-822-716.959Zm-10,0a.9.9,0,0,1,.9-.9.9.9,0,0,1,.9.9.9.9,0,0,1-.9.9A.9.9,0,0,1-832-716.959Zm-10,0a.9.9,0,0,1,.9-.9.9.9,0,0,1,.9.9.9.9,0,0,1-.9.9A.9.9,0,0,1-842-716.959Zm-8.006,0a.9.9,0,0,1,.9-.9.9.9,0,0,1,.9.9.9.9,0,0,1-.9.9A.9.9,0,0,1-850.006-716.959Zm-10,0a.9.9,0,0,1,.9-.9.9.9,0,0,1,.9.9.9.9,0,0,1-.9.9A.9.9,0,0,1-860-716.959Zm-10,0a.9.9,0,0,1,.9-.9.9.9,0,0,1,.9.9.9.9,0,0,1-.9.9A.9.9,0,0,1-870-716.959Zm-10,0a.9.9,0,0,1,.9-.9.9.9,0,0,1,.9.9.9.9,0,0,1-.9.9A.9.9,0,0,1-880-716.959Zm-10,0a.9.9,0,0,1,.9-.9.9.9,0,0,1,.9.9.9.9,0,0,1-.9.9A.9.9,0,0,1-890-716.959Zm-10,0a.9.9,0,0,1,.9-.9.9.9,0,0,1,.9.9.9.9,0,0,1-.9.9A.9.9,0,0,1-900-716.959ZM-792.005-727.5a.9.9,0,0,1,.9-.9.9.9,0,0,1,.9.9.9.9,0,0,1-.9.9A.9.9,0,0,1-792.005-727.5Zm-10,0a.9.9,0,0,1,.9-.9.9.9,0,0,1,.9.9.9.9,0,0,1-.9.9A.9.9,0,0,1-802-727.5Zm-10,0a.9.9,0,0,1,.9-.9.9.9,0,0,1,.9.9.9.9,0,0,1-.9.9A.9.9,0,0,1-812-727.5Zm-10,0a.9.9,0,0,1,.9-.9.9.9,0,0,1,.9.9.9.9,0,0,1-.9.9A.9.9,0,0,1-822-727.5Zm-10,0a.9.9,0,0,1,.9-.9.9.9,0,0,1,.9.9.9.9,0,0,1-.9.9A.9.9,0,0,1-832-727.5Zm-10,0a.9.9,0,0,1,.9-.9.9.9,0,0,1,.9.9.9.9,0,0,1-.9.9A.9.9,0,0,1-842-727.5Zm-8.006,0a.9.9,0,0,1,.9-.9.9.9,0,0,1,.9.9.9.9,0,0,1-.9.9A.9.9,0,0,1-850.006-727.5Zm-10,0a.9.9,0,0,1,.9-.9.9.9,0,0,1,.9.9.9.9,0,0,1-.9.9A.9.9,0,0,1-860-727.5Zm-10,0a.9.9,0,0,1,.9-.9.9.9,0,0,1,.9.9.9.9,0,0,1-.9.9A.9.9,0,0,1-870-727.5Zm-10,0a.9.9,0,0,1,.9-.9.9.9,0,0,1,.9.9.9.9,0,0,1-.9.9A.9.9,0,0,1-880-727.5Zm-10,0a.9.9,0,0,1,.9-.9.9.9,0,0,1,.9.9.9.9,0,0,1-.9.9A.9.9,0,0,1-890-727.5Zm-10,0a.9.9,0,0,1,.9-.9.9.9,0,0,1,.9.9.9.9,0,0,1-.9.9A.9.9,0,0,1-900-727.5Zm107.995-10.535a.9.9,0,0,1,.9-.9.9.9,0,0,1,.9.9.9.9,0,0,1-.9.9A.9.9,0,0,1-792.005-738.031Zm-10,0a.9.9,0,0,1,.9-.9.9.9,0,0,1,.9.9.9.9,0,0,1-.9.9A.9.9,0,0,1-802-738.031Zm-10,0a.9.9,0,0,1,.9-.9.9.9,0,0,1,.9.9.9.9,0,0,1-.9.9A.9.9,0,0,1-812-738.031Zm-10,0a.9.9,0,0,1,.9-.9.9.9,0,0,1,.9.9.9.9,0,0,1-.9.9A.9.9,0,0,1-822-738.031Zm-10,0a.9.9,0,0,1,.9-.9.9.9,0,0,1,.9.9.9.9,0,0,1-.9.9A.9.9,0,0,1-832-738.031Zm-10,0a.9.9,0,0,1,.9-.9.9.9,0,0,1,.9.9.9.9,0,0,1-.9.9A.9.9,0,0,1-842-738.031Zm-8.006,0a.9.9,0,0,1,.9-.9.9.9,0,0,1,.9.9.9.9,0,0,1-.9.9A.9.9,0,0,1-850.006-738.031Zm-10,0a.9.9,0,0,1,.9-.9.9.9,0,0,1,.9.9.9.9,0,0,1-.9.9A.9.9,0,0,1-860-738.031Zm-10,0a.9.9,0,0,1,.9-.9.9.9,0,0,1,.9.9.9.9,0,0,1-.9.9A.9.9,0,0,1-870-738.031Zm-10,0a.9.9,0,0,1,.9-.9.9.9,0,0,1,.9.9.9.9,0,0,1-.9.9A.9.9,0,0,1-880-738.031Zm-10,0a.9.9,0,0,1,.9-.9.9.9,0,0,1,.9.9.9.9,0,0,1-.9.9A.9.9,0,0,1-890-738.031Zm-10,0a.9.9,0,0,1,.9-.9.9.9,0,0,1,.9.9.9.9,0,0,1-.9.9A.9.9,0,0,1-900-738.031Zm107.995-10.536a.9.9,0,0,1,.9-.9.9.9,0,0,1,.9.9.9.9,0,0,1-.9.9A.9.9,0,0,1-792.005-748.567Zm-10,0a.9.9,0,0,1,.9-.9.9.9,0,0,1,.9.9.9.9,0,0,1-.9.9A.9.9,0,0,1-802-748.567Zm-10,0a.9.9,0,0,1,.9-.9.9.9,0,0,1,.9.9.9.9,0,0,1-.9.9A.9.9,0,0,1-812-748.567Zm-10,0a.9.9,0,0,1,.9-.9.9.9,0,0,1,.9.9.9.9,0,0,1-.9.9A.9.9,0,0,1-822-748.567Zm-10,0a.9.9,0,0,1,.9-.9.9.9,0,0,1,.9.9.9.9,0,0,1-.9.9A.9.9,0,0,1-832-748.567Zm-10,0a.9.9,0,0,1,.9-.9.9.9,0,0,1,.9.9.9.9,0,0,1-.9.9A.9.9,0,0,1-842-748.567Zm-8.006,0a.9.9,0,0,1,.9-.9.9.9,0,0,1,.9.9.9.9,0,0,1-.9.9A.9.9,0,0,1-850.006-748.567Zm-10,0a.9.9,0,0,1,.9-.9.9.9,0,0,1,.9.9.9.9,0,0,1-.9.9A.9.9,0,0,1-860-748.567Zm-10,0a.9.9,0,0,1,.9-.9.9.9,0,0,1,.9.9.9.9,0,0,1-.9.9A.9.9,0,0,1-870-748.567Zm-10,0a.9.9,0,0,1,.9-.9.9.9,0,0,1,.9.9.9.9,0,0,1-.9.9A.9.9,0,0,1-880-748.567Zm-10,0a.9.9,0,0,1,.9-.9.9.9,0,0,1,.9.9.9.9,0,0,1-.9.9A.9.9,0,0,1-890-748.567Zm-10,0a.9.9,0,0,1,.9-.9.9.9,0,0,1,.9.9.9.9,0,0,1-.9.9A.9.9,0,0,1-900-748.567ZM-792.005-759.1a.9.9,0,0,1,.9-.9.9.9,0,0,1,.9.9.9.9,0,0,1-.9.9A.9.9,0,0,1-792.005-759.1Zm-10,0a.9.9,0,0,1,.9-.9.9.9,0,0,1,.9.9.9.9,0,0,1-.9.9A.9.9,0,0,1-802-759.1Zm-10,0a.9.9,0,0,1,.9-.9.9.9,0,0,1,.9.9.9.9,0,0,1-.9.9A.9.9,0,0,1-812-759.1Zm-10,0a.9.9,0,0,1,.9-.9.9.9,0,0,1,.9.9.9.9,0,0,1-.9.9A.9.9,0,0,1-822-759.1Zm-10,0a.9.9,0,0,1,.9-.9.9.9,0,0,1,.9.9.9.9,0,0,1-.9.9A.9.9,0,0,1-832-759.1Zm-10,0a.9.9,0,0,1,.9-.9.9.9,0,0,1,.9.9.9.9,0,0,1-.9.9A.9.9,0,0,1-842-759.1Zm-8.006,0a.9.9,0,0,1,.9-.9.9.9,0,0,1,.9.9.9.9,0,0,1-.9.9A.9.9,0,0,1-850.006-759.1Zm-10,0a.9.9,0,0,1,.9-.9.9.9,0,0,1,.9.9.9.9,0,0,1-.9.9A.9.9,0,0,1-860-759.1Zm-10,0a.9.9,0,0,1,.9-.9.9.9,0,0,1,.9.9.9.9,0,0,1-.9.9A.9.9,0,0,1-870-759.1Zm-10,0a.9.9,0,0,1,.9-.9.9.9,0,0,1,.9.9.9.9,0,0,1-.9.9A.9.9,0,0,1-880-759.1Zm-10,0a.9.9,0,0,1,.9-.9.9.9,0,0,1,.9.9.9.9,0,0,1-.9.9A.9.9,0,0,1-890-759.1Zm-10,0a.9.9,0,0,1,.9-.9.9.9,0,0,1,.9.9.9.9,0,0,1-.9.9A.9.9,0,0,1-900-759.1Z" transform="translate(1885 1034.525)" fill="#fff" stroke="rgba(0,0,0,0)" stroke-miterlimit="10" stroke-width="1"/>
  </g>
</svg>
