<svg xmlns="http://www.w3.org/2000/svg" xmlns:xlink="http://www.w3.org/1999/xlink" width="1060.269" height="1026.41" viewBox="0 0 1060.269 1026.41">
  <defs>
    <linearGradient id="linear-gradient" x1="0.143" y1="0.241" x2="0.878" y2="0.768" gradientUnits="objectBoundingBox">
      <stop offset="0" stop-color="#ef0e74"/>
      <stop offset="1" stop-color="#ffa62e"/>
    </linearGradient>
  </defs>
  <path id="Shape" d="M1901.062,211.142a150.678,150.678,0,0,1,14.627,26.722c16.375,38.92,16.832,82.987,5.457,123.315-11.159,39.553-37.425,70.3-49.05,109.582-19.759,66.756-21.982,137.21-26.7,206.67s-12.474,140.288-42.066,203.3c-50.62,107.79-161.274,163.218-272.687,110.59-66.943-31.621-98.6-96.257-151.67-143.851-59.952-53.766-141.356-80.1-198.067-137.273-61.1-61.61-85.624-157.06-61.783-240.493s95.1-151.511,179.531-171.528c63.72-15.107,130.377-4.27,195.828-6.408,36.2-1.181,73.469-7.373,106.451-22.9,33.371-15.715,51.034-47.994,78.947-71.227,36.435-30.335,76.551-63.331,125.641-52.193C1843.924,154.163,1878.747,178.57,1901.062,211.142Z" transform="translate(394 2133.009) rotate(-106)" opacity="0.9" fill="url(#linear-gradient)"/>
</svg>
